<?xml version="1.0" encoding="utf-8" standalone="no"?>
<!DOCTYPE svg PUBLIC "-//W3C//DTD SVG 1.1//EN"
  "http://www.w3.org/Graphics/SVG/1.1/DTD/svg11.dtd">
<svg xmlns:xlink="http://www.w3.org/1999/xlink" width="520.051512pt" height="281.7pt" viewBox="0 0 520.051512 281.7" xmlns="http://www.w3.org/2000/svg" version="1.1">
 <metadata>
  <rdf:RDF xmlns:dc="http://purl.org/dc/elements/1.1/" xmlns:cc="http://creativecommons.org/ns#" xmlns:rdf="http://www.w3.org/1999/02/22-rdf-syntax-ns#">
   <cc:Work>
    <dc:type rdf:resource="http://purl.org/dc/dcmitype/StillImage"/>
    <dc:date>2026-06-07T14:07:53.941625</dc:date>
    <dc:format>image/svg+xml</dc:format>
    <dc:creator>
     <cc:Agent>
      <dc:title>Matplotlib v3.5.1, https://matplotlib.org/</dc:title>
     </cc:Agent>
    </dc:creator>
   </cc:Work>
  </rdf:RDF>
 </metadata>
 <defs>
  <style type="text/css">*{stroke-linejoin: round; stroke-linecap: butt}</style>
 </defs>
 <g id="figure_1">
  <g id="patch_1">
   <path d="M 0 281.7 
L 520.051512 281.7 
L 520.051512 0 
L 0 0 
z
" style="fill: #ffffff"/>
  </g>
  <g id="axes_1">
   <g id="patch_2">
    <path d="M 35.010833 86.0535 
L 105.802045 86.0535 
Q 123.499848 86.0535 123.499848 76.698 
L 123.499848 47.295 
Q 123.499848 37.9395 105.802045 37.9395 
L 35.010833 37.9395 
Q 17.31303 37.9395 17.31303 47.295 
L 17.31303 76.698 
Q 17.31303 86.0535 35.010833 86.0535 
z
" clip-path="url(#p55ae839555)" style="fill: #eff6ff; stroke: #3b82f6; stroke-width: 1.2; stroke-linejoin: miter"/>
   </g>
   <g id="patch_3">
    <path d="M 40.067348 94.0725 
L 49.169075 94.0725 
L 49.169075 89.2611 
L 40.067348 89.2611 
z
" clip-path="url(#p55ae839555)" style="fill: #3b82f6; stroke: #3b82f6; stroke-width: 0.55; stroke-linejoin: miter"/>
   </g>
   <g id="patch_4">
    <path d="M 54.225591 94.0725 
L 63.327318 94.0725 
L 63.327318 89.2611 
L 54.225591 89.2611 
z
" clip-path="url(#p55ae839555)" style="fill: #3b82f6; stroke: #3b82f6; stroke-width: 0.55; stroke-linejoin: miter"/>
   </g>
   <g id="patch_5">
    <path d="M 68.383833 94.0725 
L 77.48556 94.0725 
L 77.48556 89.2611 
L 68.383833 89.2611 
z
" clip-path="url(#p55ae839555)" style="fill: #3b82f6; stroke: #3b82f6; stroke-width: 0.55; stroke-linejoin: miter"/>
   </g>
   <g id="patch_6">
    <path d="M 82.542075 94.0725 
L 91.643802 94.0725 
L 91.643802 89.2611 
L 82.542075 89.2611 
z
" clip-path="url(#p55ae839555)" style="fill: #3b82f6; stroke: #3b82f6; stroke-width: 0.55; stroke-linejoin: miter"/>
   </g>
   <g id="patch_7">
    <path d="M 96.700318 94.0725 
L 105.802045 94.0725 
L 105.802045 89.2611 
L 96.700318 89.2611 
z
" clip-path="url(#p55ae839555)" style="fill: #3b82f6; stroke: #3b82f6; stroke-width: 0.55; stroke-linejoin: miter"/>
   </g>
   <g id="patch_8">
    <path d="M 35.010833 156.888 
L 105.802045 156.888 
Q 123.499848 156.888 123.499848 147.5325 
L 123.499848 120.8025 
Q 123.499848 111.447 105.802045 111.447 
L 35.010833 111.447 
Q 17.31303 111.447 17.31303 120.8025 
L 17.31303 147.5325 
Q 17.31303 156.888 35.010833 156.888 
z
" clip-path="url(#p55ae839555)" style="fill: #f0fdf4; stroke: #22c55e; stroke-width: 1.2; stroke-linejoin: miter"/>
   </g>
   <g id="patch_9">
    <path d="M 40.067348 164.3724 
L 49.169075 164.3724 
L 49.169075 159.561 
L 40.067348 159.561 
z
" clip-path="url(#p55ae839555)" style="fill: #22c55e; stroke: #22c55e; stroke-width: 0.55; stroke-linejoin: miter"/>
   </g>
   <g id="patch_10">
    <path d="M 54.225591 164.3724 
L 63.327318 164.3724 
L 63.327318 159.561 
L 54.225591 159.561 
z
" clip-path="url(#p55ae839555)" style="fill: #22c55e; stroke: #22c55e; stroke-width: 0.55; stroke-linejoin: miter"/>
   </g>
   <g id="patch_11">
    <path d="M 68.383833 164.3724 
L 77.48556 164.3724 
L 77.48556 159.561 
L 68.383833 159.561 
z
" clip-path="url(#p55ae839555)" style="fill: #22c55e; stroke: #22c55e; stroke-width: 0.55; stroke-linejoin: miter"/>
   </g>
   <g id="patch_12">
    <path d="M 82.542075 164.3724 
L 91.643802 164.3724 
L 91.643802 159.561 
L 82.542075 159.561 
z
" clip-path="url(#p55ae839555)" style="fill: #22c55e; stroke: #22c55e; stroke-width: 0.55; stroke-linejoin: miter"/>
   </g>
   <g id="patch_13">
    <path d="M 96.700318 164.3724 
L 105.802045 164.3724 
L 105.802045 159.561 
L 96.700318 159.561 
z
" clip-path="url(#p55ae839555)" style="fill: #22c55e; stroke: #22c55e; stroke-width: 0.55; stroke-linejoin: miter"/>
   </g>
   <g id="patch_14">
    <path d="M 35.010833 230.3955 
L 105.802045 230.3955 
Q 123.499848 230.3955 123.499848 221.04 
L 123.499848 191.637 
Q 123.499848 182.2815 105.802045 182.2815 
L 35.010833 182.2815 
Q 17.31303 182.2815 17.31303 191.637 
L 17.31303 221.04 
Q 17.31303 230.3955 35.010833 230.3955 
z
" clip-path="url(#p55ae839555)" style="fill: #f5f3ff; stroke: #8b5cf6; stroke-width: 1.2; stroke-linejoin: miter"/>
   </g>
   <g id="patch_15">
    <path d="M 174.064999 127.485 
L 270.138786 127.485 
Q 287.836589 127.485 287.836589 118.1295 
L 287.836589 66.006 
Q 287.836589 56.6505 270.138786 56.6505 
L 174.064999 56.6505 
Q 156.367196 56.6505 156.367196 66.006 
L 156.367196 118.1295 
Q 156.367196 127.485 174.064999 127.485 
z
" clip-path="url(#p55ae839555)" style="fill: #fffbeb; stroke: #f59e0b; stroke-width: 1.2; stroke-linejoin: miter"/>
   </g>
   <g id="patch_16">
    <path d="M 183.166726 107.4375 
L 192.268453 107.4375 
L 192.268453 102.6261 
L 183.166726 102.6261 
z
" clip-path="url(#p55ae839555)" style="fill: #f59e0b; stroke: #f59e0b; stroke-width: 0.55; stroke-linejoin: miter"/>
   </g>
   <g id="patch_17">
    <path d="M 196.313665 107.4375 
L 205.415393 107.4375 
L 205.415393 102.6261 
L 196.313665 102.6261 
z
" clip-path="url(#p55ae839555)" style="fill: #f59e0b; stroke: #f59e0b; stroke-width: 0.55; stroke-linejoin: miter"/>
   </g>
   <g id="patch_18">
    <path d="M 209.460605 107.4375 
L 218.562332 107.4375 
L 218.562332 102.6261 
L 209.460605 102.6261 
z
" clip-path="url(#p55ae839555)" style="fill: #f59e0b; stroke: #f59e0b; stroke-width: 0.55; stroke-linejoin: miter"/>
   </g>
   <g id="patch_19">
    <path d="M 222.607544 107.4375 
L 231.709271 107.4375 
L 231.709271 102.6261 
L 222.607544 102.6261 
z
" clip-path="url(#p55ae839555)" style="fill: #f59e0b; stroke: #f59e0b; stroke-width: 0.55; stroke-linejoin: miter"/>
   </g>
   <g id="patch_20">
    <path d="M 235.754483 107.4375 
L 244.856211 107.4375 
L 244.856211 102.6261 
L 235.754483 102.6261 
z
" clip-path="url(#p55ae839555)" style="fill: #f59e0b; stroke: #f59e0b; stroke-width: 0.55; stroke-linejoin: miter"/>
   </g>
   <g id="patch_21">
    <path d="M 248.901423 107.4375 
L 258.00315 107.4375 
L 258.00315 102.6261 
L 248.901423 102.6261 
z
" clip-path="url(#p55ae839555)" style="fill: #f59e0b; stroke: #f59e0b; stroke-width: 0.55; stroke-linejoin: miter"/>
   </g>
   <g id="patch_22">
    <path d="M 174.064999 230.3955 
L 270.138786 230.3955 
Q 287.836589 230.3955 287.836589 221.04 
L 287.836589 166.2435 
Q 287.836589 156.888 270.138786 156.888 
L 174.064999 156.888 
Q 156.367196 156.888 156.367196 166.2435 
L 156.367196 221.04 
Q 156.367196 230.3955 174.064999 230.3955 
z
" clip-path="url(#p55ae839555)" style="fill: #f5f3ff; stroke: #8b5cf6; stroke-width: 1.2; stroke-linejoin: miter"/>
   </g>
   <g id="patch_23">
    <path d="M 183.166726 203.6655 
L 192.268453 203.6655 
L 192.268453 198.8541 
L 183.166726 198.8541 
z
" clip-path="url(#p55ae839555)" style="fill: #8b5cf6; stroke: #8b5cf6; stroke-width: 0.55; stroke-linejoin: miter"/>
   </g>
   <g id="patch_24">
    <path d="M 195.808014 203.6655 
L 204.909741 203.6655 
L 204.909741 198.8541 
L 195.808014 198.8541 
z
" clip-path="url(#p55ae839555)" style="fill: #8b5cf6; stroke: #8b5cf6; stroke-width: 0.55; stroke-linejoin: miter"/>
   </g>
   <g id="patch_25">
    <path d="M 208.449302 203.6655 
L 217.551029 203.6655 
L 217.551029 198.8541 
L 208.449302 198.8541 
z
" clip-path="url(#p55ae839555)" style="fill: #8b5cf6; stroke: #8b5cf6; stroke-width: 0.55; stroke-linejoin: miter"/>
   </g>
   <g id="patch_26">
    <path d="M 221.09059 203.6655 
L 230.192317 203.6655 
L 230.192317 198.8541 
L 221.09059 198.8541 
z
" clip-path="url(#p55ae839555)" style="fill: #8b5cf6; stroke: #8b5cf6; stroke-width: 0.55; stroke-linejoin: miter"/>
   </g>
   <g id="patch_27">
    <path d="M 233.731877 203.6655 
L 242.833605 203.6655 
L 242.833605 198.8541 
L 233.731877 198.8541 
z
" clip-path="url(#p55ae839555)" style="fill: #8b5cf6; stroke: #8b5cf6; stroke-width: 0.55; stroke-linejoin: miter"/>
   </g>
   <g id="patch_28">
    <path d="M 246.373165 203.6655 
L 255.474892 203.6655 
L 255.474892 198.8541 
L 246.373165 198.8541 
z
" clip-path="url(#p55ae839555)" style="fill: #8b5cf6; stroke: #8b5cf6; stroke-width: 0.55; stroke-linejoin: miter"/>
   </g>
   <g id="patch_29">
    <path d="M 259.014453 203.6655 
L 268.11618 203.6655 
L 268.11618 198.8541 
L 259.014453 198.8541 
z
" clip-path="url(#p55ae839555)" style="fill: #8b5cf6; stroke: #8b5cf6; stroke-width: 0.55; stroke-linejoin: miter"/>
   </g>
   <g id="patch_30">
    <path d="M 310.590907 190.3005 
L 381.382119 190.3005 
Q 399.079922 190.3005 399.079922 180.945 
L 399.079922 116.793 
Q 399.079922 107.4375 381.382119 107.4375 
L 310.590907 107.4375 
Q 292.893104 107.4375 292.893104 116.793 
L 292.893104 180.945 
Q 292.893104 190.3005 310.590907 190.3005 
z
" clip-path="url(#p55ae839555)" style="fill: #f9fafb; stroke: #9ca3af; stroke-width: 1.2; stroke-linejoin: miter"/>
   </g>
   <g id="patch_31">
    <path d="M 313.119165 136.8405 
L 321.209589 136.8405 
L 321.209589 132.5637 
L 313.119165 132.5637 
z
" clip-path="url(#p55ae839555)" style="fill: #3b82f6; stroke: #3b82f6; stroke-width: 0.55; stroke-linejoin: miter"/>
   </g>
   <g id="patch_32">
    <path d="M 324.243498 136.8405 
L 332.333922 136.8405 
L 332.333922 132.5637 
L 324.243498 132.5637 
z
" clip-path="url(#p55ae839555)" style="fill: #3b82f6; stroke: #3b82f6; stroke-width: 0.55; stroke-linejoin: miter"/>
   </g>
   <g id="patch_33">
    <path d="M 335.367831 136.8405 
L 343.458255 136.8405 
L 343.458255 132.5637 
L 335.367831 132.5637 
z
" clip-path="url(#p55ae839555)" style="fill: #3b82f6; stroke: #3b82f6; stroke-width: 0.55; stroke-linejoin: miter"/>
   </g>
   <g id="patch_34">
    <path d="M 346.492164 136.8405 
L 354.582589 136.8405 
L 354.582589 132.5637 
L 346.492164 132.5637 
z
" clip-path="url(#p55ae839555)" style="fill: #3b82f6; stroke: #3b82f6; stroke-width: 0.55; stroke-linejoin: miter"/>
   </g>
   <g id="patch_35">
    <path d="M 357.616498 136.8405 
L 365.706922 136.8405 
L 365.706922 132.5637 
L 357.616498 132.5637 
z
" clip-path="url(#p55ae839555)" style="fill: #3b82f6; stroke: #3b82f6; stroke-width: 0.55; stroke-linejoin: miter"/>
   </g>
   <g id="patch_36">
    <path d="M 368.740831 136.8405 
L 376.831255 136.8405 
L 376.831255 132.5637 
L 368.740831 132.5637 
z
" clip-path="url(#p55ae839555)" style="fill: #3b82f6; stroke: #3b82f6; stroke-width: 0.55; stroke-linejoin: miter"/>
   </g>
   <g id="patch_37">
    <path d="M 313.119165 152.8785 
L 321.209589 152.8785 
L 321.209589 148.6017 
L 313.119165 148.6017 
z
" clip-path="url(#p55ae839555)" style="fill: #22c55e; stroke: #22c55e; stroke-width: 0.55; stroke-linejoin: miter"/>
   </g>
   <g id="patch_38">
    <path d="M 324.243498 152.8785 
L 332.333922 152.8785 
L 332.333922 148.6017 
L 324.243498 148.6017 
z
" clip-path="url(#p55ae839555)" style="fill: #22c55e; stroke: #22c55e; stroke-width: 0.55; stroke-linejoin: miter"/>
   </g>
   <g id="patch_39">
    <path d="M 335.367831 152.8785 
L 343.458255 152.8785 
L 343.458255 148.6017 
L 335.367831 148.6017 
z
" clip-path="url(#p55ae839555)" style="fill: #22c55e; stroke: #22c55e; stroke-width: 0.55; stroke-linejoin: miter"/>
   </g>
   <g id="patch_40">
    <path d="M 346.492164 152.8785 
L 354.582589 152.8785 
L 354.582589 148.6017 
L 346.492164 148.6017 
z
" clip-path="url(#p55ae839555)" style="fill: #22c55e; stroke: #22c55e; stroke-width: 0.55; stroke-linejoin: miter"/>
   </g>
   <g id="patch_41">
    <path d="M 357.616498 152.8785 
L 365.706922 152.8785 
L 365.706922 148.6017 
L 357.616498 148.6017 
z
" clip-path="url(#p55ae839555)" style="fill: #22c55e; stroke: #22c55e; stroke-width: 0.55; stroke-linejoin: miter"/>
   </g>
   <g id="patch_42">
    <path d="M 368.740831 152.8785 
L 376.831255 152.8785 
L 376.831255 148.6017 
L 368.740831 148.6017 
z
" clip-path="url(#p55ae839555)" style="fill: #22c55e; stroke: #22c55e; stroke-width: 0.55; stroke-linejoin: miter"/>
   </g>
   <g id="patch_43">
    <path d="M 313.119165 168.9165 
L 321.209589 168.9165 
L 321.209589 164.6397 
L 313.119165 164.6397 
z
" clip-path="url(#p55ae839555)" style="fill: #8b5cf6; stroke: #8b5cf6; stroke-width: 0.55; stroke-linejoin: miter"/>
   </g>
   <g id="patch_44">
    <path d="M 324.243498 168.9165 
L 332.333922 168.9165 
L 332.333922 164.6397 
L 324.243498 164.6397 
z
" clip-path="url(#p55ae839555)" style="fill: #8b5cf6; stroke: #8b5cf6; stroke-width: 0.55; stroke-linejoin: miter"/>
   </g>
   <g id="patch_45">
    <path d="M 335.367831 168.9165 
L 343.458255 168.9165 
L 343.458255 164.6397 
L 335.367831 164.6397 
z
" clip-path="url(#p55ae839555)" style="fill: #8b5cf6; stroke: #8b5cf6; stroke-width: 0.55; stroke-linejoin: miter"/>
   </g>
   <g id="patch_46">
    <path d="M 346.492164 168.9165 
L 354.582589 168.9165 
L 354.582589 164.6397 
L 346.492164 164.6397 
z
" clip-path="url(#p55ae839555)" style="fill: #8b5cf6; stroke: #8b5cf6; stroke-width: 0.55; stroke-linejoin: miter"/>
   </g>
   <g id="patch_47">
    <path d="M 357.616498 168.9165 
L 365.706922 168.9165 
L 365.706922 164.6397 
L 357.616498 164.6397 
z
" clip-path="url(#p55ae839555)" style="fill: #8b5cf6; stroke: #8b5cf6; stroke-width: 0.55; stroke-linejoin: miter"/>
   </g>
   <g id="patch_48">
    <path d="M 368.740831 168.9165 
L 376.831255 168.9165 
L 376.831255 164.6397 
L 368.740831 164.6397 
z
" clip-path="url(#p55ae839555)" style="fill: #8b5cf6; stroke: #8b5cf6; stroke-width: 0.55; stroke-linejoin: miter"/>
   </g>
   <g id="patch_49">
    <path d="M 379.865164 168.9165 
L 387.955588 168.9165 
L 387.955588 164.6397 
L 379.865164 164.6397 
z
" clip-path="url(#p55ae839555)" style="fill: #8b5cf6; stroke: #8b5cf6; stroke-width: 0.55; stroke-linejoin: miter"/>
   </g>
   <g id="patch_50">
    <path d="M 421.83424 134.1675 
L 482.512421 134.1675 
Q 500.210224 134.1675 500.210224 124.812 
L 500.210224 96.7455 
Q 500.210224 87.39 482.512421 87.39 
L 421.83424 87.39 
Q 404.136437 87.39 404.136437 96.7455 
L 404.136437 124.812 
Q 404.136437 134.1675 421.83424 134.1675 
z
" clip-path="url(#p55ae839555)" style="fill: #eff6ff; stroke: #3b82f6; stroke-width: 1.2; stroke-linejoin: miter"/>
   </g>
   <g id="patch_51">
    <path d="M 421.83424 202.329 
L 482.512421 202.329 
Q 500.210224 202.329 500.210224 192.9735 
L 500.210224 168.9165 
Q 500.210224 159.561 482.512421 159.561 
L 421.83424 159.561 
Q 404.136437 159.561 404.136437 168.9165 
L 404.136437 192.9735 
Q 404.136437 202.329 421.83424 202.329 
z
" clip-path="url(#p55ae839555)" style="fill: #fffbeb; stroke: #f59e0b; stroke-width: 1.2; stroke-linejoin: miter"/>
   </g>
   <g id="patch_52">
    <path d="M 419.305982 219.7035 
L 427.902058 219.7035 
L 427.902058 215.1594 
L 419.305982 215.1594 
z
" clip-path="url(#p55ae839555)" style="fill: #8b5cf6; stroke: #8b5cf6; stroke-width: 0.55; stroke-linejoin: miter"/>
   </g>
   <g id="patch_53">
    <path d="M 430.935967 219.7035 
L 439.532043 219.7035 
L 439.532043 215.1594 
L 430.935967 215.1594 
z
" clip-path="url(#p55ae839555)" style="fill: #8b5cf6; stroke: #8b5cf6; stroke-width: 0.55; stroke-linejoin: miter"/>
   </g>
   <g id="patch_54">
    <path d="M 442.565952 219.7035 
L 451.162027 219.7035 
L 451.162027 215.1594 
L 442.565952 215.1594 
z
" clip-path="url(#p55ae839555)" style="fill: #8b5cf6; stroke: #8b5cf6; stroke-width: 0.55; stroke-linejoin: miter"/>
   </g>
   <g id="patch_55">
    <path d="M 454.195936 219.7035 
L 462.792012 219.7035 
L 462.792012 215.1594 
L 454.195936 215.1594 
z
" clip-path="url(#p55ae839555)" style="fill: #8b5cf6; stroke: #8b5cf6; stroke-width: 0.55; stroke-linejoin: miter"/>
   </g>
   <g id="patch_56">
    <path d="M 465.825921 219.7035 
L 474.421997 219.7035 
L 474.421997 215.1594 
L 465.825921 215.1594 
z
" clip-path="url(#p55ae839555)" style="fill: #8b5cf6; stroke: #8b5cf6; stroke-width: 0.55; stroke-linejoin: miter"/>
   </g>
   <g id="patch_57">
    <path d="M 477.455906 219.7035 
L 486.051982 219.7035 
L 486.051982 215.1594 
L 477.455906 215.1594 
z
" clip-path="url(#p55ae839555)" style="fill: #8b5cf6; stroke: #8b5cf6; stroke-width: 0.55; stroke-linejoin: miter"/>
   </g>
   <g id="patch_58">
    <path d="M 45.123863 259.7985 
L 54.225591 259.7985 
L 54.225591 254.9871 
L 45.123863 254.9871 
z
" clip-path="url(#p55ae839555)" style="fill: #3b82f6; stroke: #3b82f6; stroke-width: 0.5; stroke-linejoin: miter"/>
   </g>
   <g id="patch_59">
    <path d="M 131.08462 259.7985 
L 140.186348 259.7985 
L 140.186348 254.9871 
L 131.08462 254.9871 
z
" clip-path="url(#p55ae839555)" style="fill: #22c55e; stroke: #22c55e; stroke-width: 0.5; stroke-linejoin: miter"/>
   </g>
   <g id="patch_60">
    <path d="M 217.045377 259.7985 
L 226.147105 259.7985 
L 226.147105 254.9871 
L 217.045377 254.9871 
z
" clip-path="url(#p55ae839555)" style="fill: #8b5cf6; stroke: #8b5cf6; stroke-width: 0.5; stroke-linejoin: miter"/>
   </g>
   <g id="patch_61">
    <path d="M 303.006134 259.7985 
L 312.107862 259.7985 
L 312.107862 254.9871 
L 303.006134 254.9871 
z
" clip-path="url(#p55ae839555)" style="fill: #f59e0b; stroke: #f59e0b; stroke-width: 0.5; stroke-linejoin: miter"/>
   </g>
   <g id="patch_62">
    <path d="M 388.966891 259.7985 
L 398.068619 259.7985 
L 398.068619 254.9871 
L 388.966891 254.9871 
z
" clip-path="url(#p55ae839555)" style="fill: #ef4444; stroke: #ef4444; stroke-width: 0.5; stroke-linejoin: miter"/>
   </g>
   <g id="line2d_1">
    <path d="M 36.527788 239.751 
L 54.225591 234.405 
L 71.923394 241.3548 
L 89.621196 236.0088 
" clip-path="url(#p55ae839555)" style="fill: none; stroke: #8b5cf6; stroke-width: 1.5; stroke-linecap: square"/>
   </g>
   <g id="text_1">
    <!-- FoCo-VLA: Force-as-Context Vision-Language-Action Policies -->
    <g style="fill: #111827" transform="translate(17.31303 24.533859)scale(0.105 -0.105)">
     <defs>
      <path id="DejaVuSans-Bold-46" d="M 588 4666 
L 3834 4666 
L 3834 3756 
L 1791 3756 
L 1791 2888 
L 3713 2888 
L 3713 1978 
L 1791 1978 
L 1791 0 
L 588 0 
L 588 4666 
z
" transform="scale(0.015625)"/>
      <path id="DejaVuSans-Bold-6f" d="M 2203 2784 
Q 1831 2784 1636 2517 
Q 1441 2250 1441 1747 
Q 1441 1244 1636 976 
Q 1831 709 2203 709 
Q 2569 709 2762 976 
Q 2956 1244 2956 1747 
Q 2956 2250 2762 2517 
Q 2569 2784 2203 2784 
z
M 2203 3584 
Q 3106 3584 3614 3096 
Q 4122 2609 4122 1747 
Q 4122 884 3614 396 
Q 3106 -91 2203 -91 
Q 1297 -91 786 396 
Q 275 884 275 1747 
Q 275 2609 786 3096 
Q 1297 3584 2203 3584 
z
" transform="scale(0.015625)"/>
      <path id="DejaVuSans-Bold-43" d="M 4288 256 
Q 3956 84 3597 -3 
Q 3238 -91 2847 -91 
Q 1681 -91 1000 561 
Q 319 1213 319 2328 
Q 319 3447 1000 4098 
Q 1681 4750 2847 4750 
Q 3238 4750 3597 4662 
Q 3956 4575 4288 4403 
L 4288 3438 
Q 3953 3666 3628 3772 
Q 3303 3878 2944 3878 
Q 2300 3878 1931 3465 
Q 1563 3053 1563 2328 
Q 1563 1606 1931 1193 
Q 2300 781 2944 781 
Q 3303 781 3628 887 
Q 3953 994 4288 1222 
L 4288 256 
z
" transform="scale(0.015625)"/>
      <path id="DejaVuSans-Bold-2d" d="M 347 2297 
L 2309 2297 
L 2309 1388 
L 347 1388 
L 347 2297 
z
" transform="scale(0.015625)"/>
      <path id="DejaVuSans-Bold-56" d="M 31 4666 
L 1241 4666 
L 2478 1222 
L 3713 4666 
L 4922 4666 
L 3194 0 
L 1759 0 
L 31 4666 
z
" transform="scale(0.015625)"/>
      <path id="DejaVuSans-Bold-4c" d="M 588 4666 
L 1791 4666 
L 1791 909 
L 3903 909 
L 3903 0 
L 588 0 
L 588 4666 
z
" transform="scale(0.015625)"/>
      <path id="DejaVuSans-Bold-41" d="M 3419 850 
L 1538 850 
L 1241 0 
L 31 0 
L 1759 4666 
L 3194 4666 
L 4922 0 
L 3713 0 
L 3419 850 
z
M 1838 1716 
L 3116 1716 
L 2478 3572 
L 1838 1716 
z
" transform="scale(0.015625)"/>
      <path id="DejaVuSans-Bold-3a" d="M 716 3500 
L 1844 3500 
L 1844 2291 
L 716 2291 
L 716 3500 
z
M 716 1209 
L 1844 1209 
L 1844 0 
L 716 0 
L 716 1209 
z
" transform="scale(0.015625)"/>
      <path id="DejaVuSans-Bold-20" transform="scale(0.015625)"/>
      <path id="DejaVuSans-Bold-72" d="M 3138 2547 
Q 2991 2616 2845 2648 
Q 2700 2681 2553 2681 
Q 2122 2681 1889 2404 
Q 1656 2128 1656 1613 
L 1656 0 
L 538 0 
L 538 3500 
L 1656 3500 
L 1656 2925 
Q 1872 3269 2151 3426 
Q 2431 3584 2822 3584 
Q 2878 3584 2943 3579 
Q 3009 3575 3134 3559 
L 3138 2547 
z
" transform="scale(0.015625)"/>
      <path id="DejaVuSans-Bold-63" d="M 3366 3391 
L 3366 2478 
Q 3138 2634 2908 2709 
Q 2678 2784 2431 2784 
Q 1963 2784 1702 2511 
Q 1441 2238 1441 1747 
Q 1441 1256 1702 982 
Q 1963 709 2431 709 
Q 2694 709 2930 787 
Q 3166 866 3366 1019 
L 3366 103 
Q 3103 6 2833 -42 
Q 2563 -91 2291 -91 
Q 1344 -91 809 395 
Q 275 881 275 1747 
Q 275 2613 809 3098 
Q 1344 3584 2291 3584 
Q 2566 3584 2833 3536 
Q 3100 3488 3366 3391 
z
" transform="scale(0.015625)"/>
      <path id="DejaVuSans-Bold-65" d="M 4031 1759 
L 4031 1441 
L 1416 1441 
Q 1456 1047 1700 850 
Q 1944 653 2381 653 
Q 2734 653 3104 758 
Q 3475 863 3866 1075 
L 3866 213 
Q 3469 63 3072 -14 
Q 2675 -91 2278 -91 
Q 1328 -91 801 392 
Q 275 875 275 1747 
Q 275 2603 792 3093 
Q 1309 3584 2216 3584 
Q 3041 3584 3536 3087 
Q 4031 2591 4031 1759 
z
M 2881 2131 
Q 2881 2450 2695 2645 
Q 2509 2841 2209 2841 
Q 1884 2841 1681 2658 
Q 1478 2475 1428 2131 
L 2881 2131 
z
" transform="scale(0.015625)"/>
      <path id="DejaVuSans-Bold-61" d="M 2106 1575 
Q 1756 1575 1579 1456 
Q 1403 1338 1403 1106 
Q 1403 894 1545 773 
Q 1688 653 1941 653 
Q 2256 653 2472 879 
Q 2688 1106 2688 1447 
L 2688 1575 
L 2106 1575 
z
M 3816 1997 
L 3816 0 
L 2688 0 
L 2688 519 
Q 2463 200 2181 54 
Q 1900 -91 1497 -91 
Q 953 -91 614 226 
Q 275 544 275 1050 
Q 275 1666 698 1953 
Q 1122 2241 2028 2241 
L 2688 2241 
L 2688 2328 
Q 2688 2594 2478 2717 
Q 2269 2841 1825 2841 
Q 1466 2841 1156 2769 
Q 847 2697 581 2553 
L 581 3406 
Q 941 3494 1303 3539 
Q 1666 3584 2028 3584 
Q 2975 3584 3395 3211 
Q 3816 2838 3816 1997 
z
" transform="scale(0.015625)"/>
      <path id="DejaVuSans-Bold-73" d="M 3272 3391 
L 3272 2541 
Q 2913 2691 2578 2766 
Q 2244 2841 1947 2841 
Q 1628 2841 1473 2761 
Q 1319 2681 1319 2516 
Q 1319 2381 1436 2309 
Q 1553 2238 1856 2203 
L 2053 2175 
Q 2913 2066 3209 1816 
Q 3506 1566 3506 1031 
Q 3506 472 3093 190 
Q 2681 -91 1863 -91 
Q 1516 -91 1145 -36 
Q 775 19 384 128 
L 384 978 
Q 719 816 1070 734 
Q 1422 653 1784 653 
Q 2113 653 2278 743 
Q 2444 834 2444 1013 
Q 2444 1163 2330 1236 
Q 2216 1309 1875 1350 
L 1678 1375 
Q 931 1469 631 1722 
Q 331 1975 331 2491 
Q 331 3047 712 3315 
Q 1094 3584 1881 3584 
Q 2191 3584 2531 3537 
Q 2872 3491 3272 3391 
z
" transform="scale(0.015625)"/>
      <path id="DejaVuSans-Bold-6e" d="M 4056 2131 
L 4056 0 
L 2931 0 
L 2931 347 
L 2931 1631 
Q 2931 2084 2911 2256 
Q 2891 2428 2841 2509 
Q 2775 2619 2662 2680 
Q 2550 2741 2406 2741 
Q 2056 2741 1856 2470 
Q 1656 2200 1656 1722 
L 1656 0 
L 538 0 
L 538 3500 
L 1656 3500 
L 1656 2988 
Q 1909 3294 2193 3439 
Q 2478 3584 2822 3584 
Q 3428 3584 3742 3212 
Q 4056 2841 4056 2131 
z
" transform="scale(0.015625)"/>
      <path id="DejaVuSans-Bold-74" d="M 1759 4494 
L 1759 3500 
L 2913 3500 
L 2913 2700 
L 1759 2700 
L 1759 1216 
Q 1759 972 1856 886 
Q 1953 800 2241 800 
L 2816 800 
L 2816 0 
L 1856 0 
Q 1194 0 917 276 
Q 641 553 641 1216 
L 641 2700 
L 84 2700 
L 84 3500 
L 641 3500 
L 641 4494 
L 1759 4494 
z
" transform="scale(0.015625)"/>
      <path id="DejaVuSans-Bold-78" d="M 1422 1791 
L 159 3500 
L 1344 3500 
L 2059 2463 
L 2784 3500 
L 3969 3500 
L 2706 1797 
L 4031 0 
L 2847 0 
L 2059 1106 
L 1281 0 
L 97 0 
L 1422 1791 
z
" transform="scale(0.015625)"/>
      <path id="DejaVuSans-Bold-69" d="M 538 3500 
L 1656 3500 
L 1656 0 
L 538 0 
L 538 3500 
z
M 538 4863 
L 1656 4863 
L 1656 3950 
L 538 3950 
L 538 4863 
z
" transform="scale(0.015625)"/>
      <path id="DejaVuSans-Bold-67" d="M 2919 594 
Q 2688 288 2409 144 
Q 2131 0 1766 0 
Q 1125 0 706 504 
Q 288 1009 288 1791 
Q 288 2575 706 3076 
Q 1125 3578 1766 3578 
Q 2131 3578 2409 3434 
Q 2688 3291 2919 2981 
L 2919 3500 
L 4044 3500 
L 4044 353 
Q 4044 -491 3511 -936 
Q 2978 -1381 1966 -1381 
Q 1638 -1381 1331 -1331 
Q 1025 -1281 716 -1178 
L 716 -306 
Q 1009 -475 1290 -558 
Q 1572 -641 1856 -641 
Q 2406 -641 2662 -400 
Q 2919 -159 2919 353 
L 2919 594 
z
M 2181 2772 
Q 1834 2772 1640 2515 
Q 1447 2259 1447 1791 
Q 1447 1309 1634 1061 
Q 1822 813 2181 813 
Q 2531 813 2725 1069 
Q 2919 1325 2919 1791 
Q 2919 2259 2725 2515 
Q 2531 2772 2181 2772 
z
" transform="scale(0.015625)"/>
      <path id="DejaVuSans-Bold-75" d="M 500 1363 
L 500 3500 
L 1625 3500 
L 1625 3150 
Q 1625 2866 1622 2436 
Q 1619 2006 1619 1863 
Q 1619 1441 1641 1255 
Q 1663 1069 1716 984 
Q 1784 875 1895 815 
Q 2006 756 2150 756 
Q 2500 756 2700 1025 
Q 2900 1294 2900 1772 
L 2900 3500 
L 4019 3500 
L 4019 0 
L 2900 0 
L 2900 506 
Q 2647 200 2364 54 
Q 2081 -91 1741 -91 
Q 1134 -91 817 281 
Q 500 653 500 1363 
z
" transform="scale(0.015625)"/>
      <path id="DejaVuSans-Bold-50" d="M 588 4666 
L 2584 4666 
Q 3475 4666 3951 4270 
Q 4428 3875 4428 3144 
Q 4428 2409 3951 2014 
Q 3475 1619 2584 1619 
L 1791 1619 
L 1791 0 
L 588 0 
L 588 4666 
z
M 1791 3794 
L 1791 2491 
L 2456 2491 
Q 2806 2491 2997 2661 
Q 3188 2831 3188 3144 
Q 3188 3456 2997 3625 
Q 2806 3794 2456 3794 
L 1791 3794 
z
" transform="scale(0.015625)"/>
      <path id="DejaVuSans-Bold-6c" d="M 538 4863 
L 1656 4863 
L 1656 0 
L 538 0 
L 538 4863 
z
" transform="scale(0.015625)"/>
     </defs>
     <use xlink:href="#DejaVuSans-Bold-46"/>
     <use xlink:href="#DejaVuSans-Bold-6f" x="64.310547"/>
     <use xlink:href="#DejaVuSans-Bold-43" x="133.011719"/>
     <use xlink:href="#DejaVuSans-Bold-6f" x="206.400391"/>
     <use xlink:href="#DejaVuSans-Bold-2d" x="275.101562"/>
     <use xlink:href="#DejaVuSans-Bold-56" x="309.355469"/>
     <use xlink:href="#DejaVuSans-Bold-4c" x="386.748047"/>
     <use xlink:href="#DejaVuSans-Bold-41" x="450.46875"/>
     <use xlink:href="#DejaVuSans-Bold-3a" x="529.736328"/>
     <use xlink:href="#DejaVuSans-Bold-20" x="569.726562"/>
     <use xlink:href="#DejaVuSans-Bold-46" x="604.541016"/>
     <use xlink:href="#DejaVuSans-Bold-6f" x="668.851562"/>
     <use xlink:href="#DejaVuSans-Bold-72" x="737.552734"/>
     <use xlink:href="#DejaVuSans-Bold-63" x="786.869141"/>
     <use xlink:href="#DejaVuSans-Bold-65" x="846.146484"/>
     <use xlink:href="#DejaVuSans-Bold-2d" x="913.96875"/>
     <use xlink:href="#DejaVuSans-Bold-61" x="955.472656"/>
     <use xlink:href="#DejaVuSans-Bold-73" x="1022.953125"/>
     <use xlink:href="#DejaVuSans-Bold-2d" x="1082.474609"/>
     <use xlink:href="#DejaVuSans-Bold-43" x="1123.978516"/>
     <use xlink:href="#DejaVuSans-Bold-6f" x="1197.367188"/>
     <use xlink:href="#DejaVuSans-Bold-6e" x="1266.068359"/>
     <use xlink:href="#DejaVuSans-Bold-74" x="1337.259766"/>
     <use xlink:href="#DejaVuSans-Bold-65" x="1385.0625"/>
     <use xlink:href="#DejaVuSans-Bold-78" x="1452.884766"/>
     <use xlink:href="#DejaVuSans-Bold-74" x="1517.386719"/>
     <use xlink:href="#DejaVuSans-Bold-20" x="1565.189453"/>
     <use xlink:href="#DejaVuSans-Bold-56" x="1600.003906"/>
     <use xlink:href="#DejaVuSans-Bold-69" x="1675.646484"/>
     <use xlink:href="#DejaVuSans-Bold-73" x="1709.923828"/>
     <use xlink:href="#DejaVuSans-Bold-69" x="1769.445312"/>
     <use xlink:href="#DejaVuSans-Bold-6f" x="1803.722656"/>
     <use xlink:href="#DejaVuSans-Bold-6e" x="1872.423828"/>
     <use xlink:href="#DejaVuSans-Bold-2d" x="1943.615234"/>
     <use xlink:href="#DejaVuSans-Bold-4c" x="1985.119141"/>
     <use xlink:href="#DejaVuSans-Bold-61" x="2048.839844"/>
     <use xlink:href="#DejaVuSans-Bold-6e" x="2116.320312"/>
     <use xlink:href="#DejaVuSans-Bold-67" x="2187.511719"/>
     <use xlink:href="#DejaVuSans-Bold-75" x="2259.09375"/>
     <use xlink:href="#DejaVuSans-Bold-61" x="2330.285156"/>
     <use xlink:href="#DejaVuSans-Bold-67" x="2397.765625"/>
     <use xlink:href="#DejaVuSans-Bold-65" x="2469.347656"/>
     <use xlink:href="#DejaVuSans-Bold-2d" x="2537.169922"/>
     <use xlink:href="#DejaVuSans-Bold-41" x="2578.673828"/>
     <use xlink:href="#DejaVuSans-Bold-63" x="2656.066406"/>
     <use xlink:href="#DejaVuSans-Bold-74" x="2715.34375"/>
     <use xlink:href="#DejaVuSans-Bold-69" x="2763.146484"/>
     <use xlink:href="#DejaVuSans-Bold-6f" x="2797.423828"/>
     <use xlink:href="#DejaVuSans-Bold-6e" x="2866.125"/>
     <use xlink:href="#DejaVuSans-Bold-20" x="2937.316406"/>
     <use xlink:href="#DejaVuSans-Bold-50" x="2972.130859"/>
     <use xlink:href="#DejaVuSans-Bold-6f" x="3045.421875"/>
     <use xlink:href="#DejaVuSans-Bold-6c" x="3114.123047"/>
     <use xlink:href="#DejaVuSans-Bold-69" x="3148.400391"/>
     <use xlink:href="#DejaVuSans-Bold-63" x="3182.677734"/>
     <use xlink:href="#DejaVuSans-Bold-69" x="3241.955078"/>
     <use xlink:href="#DejaVuSans-Bold-65" x="3276.232422"/>
     <use xlink:href="#DejaVuSans-Bold-73" x="3344.054688"/>
    </g>
   </g>
   <g id="text_2">
    <!-- Multi-view RGB -->
    <g style="fill: #111827" transform="translate(34.784525 64.286781)scale(0.083 -0.083)">
     <defs>
      <path id="DejaVuSans-Bold-4d" d="M 588 4666 
L 2119 4666 
L 3181 2169 
L 4250 4666 
L 5778 4666 
L 5778 0 
L 4641 0 
L 4641 3413 
L 3566 897 
L 2803 897 
L 1728 3413 
L 1728 0 
L 588 0 
L 588 4666 
z
" transform="scale(0.015625)"/>
      <path id="DejaVuSans-Bold-76" d="M 97 3500 
L 1216 3500 
L 2088 1081 
L 2956 3500 
L 4078 3500 
L 2700 0 
L 1472 0 
L 97 3500 
z
" transform="scale(0.015625)"/>
      <path id="DejaVuSans-Bold-77" d="M 225 3500 
L 1313 3500 
L 1900 1088 
L 2491 3500 
L 3425 3500 
L 4013 1113 
L 4603 3500 
L 5691 3500 
L 4769 0 
L 3547 0 
L 2956 2406 
L 2369 0 
L 1147 0 
L 225 3500 
z
" transform="scale(0.015625)"/>
      <path id="DejaVuSans-Bold-52" d="M 2297 2597 
Q 2675 2597 2839 2737 
Q 3003 2878 3003 3200 
Q 3003 3519 2839 3656 
Q 2675 3794 2297 3794 
L 1791 3794 
L 1791 2597 
L 2297 2597 
z
M 1791 1766 
L 1791 0 
L 588 0 
L 588 4666 
L 2425 4666 
Q 3347 4666 3776 4356 
Q 4206 4047 4206 3378 
Q 4206 2916 3982 2619 
Q 3759 2322 3309 2181 
Q 3556 2125 3751 1926 
Q 3947 1728 4147 1325 
L 4800 0 
L 3519 0 
L 2950 1159 
Q 2778 1509 2601 1637 
Q 2425 1766 2131 1766 
L 1791 1766 
z
" transform="scale(0.015625)"/>
      <path id="DejaVuSans-Bold-47" d="M 4781 347 
Q 4331 128 3847 18 
Q 3363 -91 2847 -91 
Q 1681 -91 1000 561 
Q 319 1213 319 2328 
Q 319 3456 1012 4103 
Q 1706 4750 2913 4750 
Q 3378 4750 3804 4662 
Q 4231 4575 4609 4403 
L 4609 3438 
Q 4219 3659 3833 3768 
Q 3447 3878 3059 3878 
Q 2341 3878 1952 3476 
Q 1563 3075 1563 2328 
Q 1563 1588 1938 1184 
Q 2313 781 3003 781 
Q 3191 781 3352 804 
Q 3513 828 3641 878 
L 3641 1784 
L 2906 1784 
L 2906 2591 
L 4781 2591 
L 4781 347 
z
" transform="scale(0.015625)"/>
      <path id="DejaVuSans-Bold-42" d="M 2456 2859 
Q 2741 2859 2887 2984 
Q 3034 3109 3034 3353 
Q 3034 3594 2887 3720 
Q 2741 3847 2456 3847 
L 1791 3847 
L 1791 2859 
L 2456 2859 
z
M 2497 819 
Q 2859 819 3042 972 
Q 3225 1125 3225 1434 
Q 3225 1738 3044 1889 
Q 2863 2041 2497 2041 
L 1791 2041 
L 1791 819 
L 2497 819 
z
M 3616 2497 
Q 4003 2384 4215 2081 
Q 4428 1778 4428 1338 
Q 4428 663 3972 331 
Q 3516 0 2584 0 
L 588 0 
L 588 4666 
L 2394 4666 
Q 3366 4666 3802 4372 
Q 4238 4078 4238 3431 
Q 4238 3091 4078 2852 
Q 3919 2613 3616 2497 
z
" transform="scale(0.015625)"/>
     </defs>
     <use xlink:href="#DejaVuSans-Bold-4d"/>
     <use xlink:href="#DejaVuSans-Bold-75" x="99.511719"/>
     <use xlink:href="#DejaVuSans-Bold-6c" x="170.703125"/>
     <use xlink:href="#DejaVuSans-Bold-74" x="204.980469"/>
     <use xlink:href="#DejaVuSans-Bold-69" x="252.783203"/>
     <use xlink:href="#DejaVuSans-Bold-2d" x="287.060547"/>
     <use xlink:href="#DejaVuSans-Bold-76" x="328.564453"/>
     <use xlink:href="#DejaVuSans-Bold-69" x="393.75"/>
     <use xlink:href="#DejaVuSans-Bold-65" x="428.027344"/>
     <use xlink:href="#DejaVuSans-Bold-77" x="495.849609"/>
     <use xlink:href="#DejaVuSans-Bold-20" x="588.232422"/>
     <use xlink:href="#DejaVuSans-Bold-52" x="623.046875"/>
     <use xlink:href="#DejaVuSans-Bold-47" x="700.048828"/>
     <use xlink:href="#DejaVuSans-Bold-42" x="782.128906"/>
    </g>
   </g>
   <g id="text_3">
    <!-- ... -->
    <g style="fill: #374151" transform="translate(115.915075 93.8743)scale(0.08 -0.08)">
     <defs>
      <path id="DejaVuSans-2e" d="M 684 794 
L 1344 794 
L 1344 0 
L 684 0 
L 684 794 
z
" transform="scale(0.015625)"/>
     </defs>
     <use xlink:href="#DejaVuSans-2e"/>
     <use xlink:href="#DejaVuSans-2e" x="31.787109"/>
     <use xlink:href="#DejaVuSans-2e" x="63.574219"/>
    </g>
   </g>
   <g id="text_4">
    <!-- SigLIP vision tokens -->
    <g style="fill: #374151" transform="translate(35.010833 101.5569)scale(0.07 -0.07)">
     <defs>
      <path id="DejaVuSans-53" d="M 3425 4513 
L 3425 3897 
Q 3066 4069 2747 4153 
Q 2428 4238 2131 4238 
Q 1616 4238 1336 4038 
Q 1056 3838 1056 3469 
Q 1056 3159 1242 3001 
Q 1428 2844 1947 2747 
L 2328 2669 
Q 3034 2534 3370 2195 
Q 3706 1856 3706 1288 
Q 3706 609 3251 259 
Q 2797 -91 1919 -91 
Q 1588 -91 1214 -16 
Q 841 59 441 206 
L 441 856 
Q 825 641 1194 531 
Q 1563 422 1919 422 
Q 2459 422 2753 634 
Q 3047 847 3047 1241 
Q 3047 1584 2836 1778 
Q 2625 1972 2144 2069 
L 1759 2144 
Q 1053 2284 737 2584 
Q 422 2884 422 3419 
Q 422 4038 858 4394 
Q 1294 4750 2059 4750 
Q 2388 4750 2728 4690 
Q 3069 4631 3425 4513 
z
" transform="scale(0.015625)"/>
      <path id="DejaVuSans-69" d="M 603 3500 
L 1178 3500 
L 1178 0 
L 603 0 
L 603 3500 
z
M 603 4863 
L 1178 4863 
L 1178 4134 
L 603 4134 
L 603 4863 
z
" transform="scale(0.015625)"/>
      <path id="DejaVuSans-67" d="M 2906 1791 
Q 2906 2416 2648 2759 
Q 2391 3103 1925 3103 
Q 1463 3103 1205 2759 
Q 947 2416 947 1791 
Q 947 1169 1205 825 
Q 1463 481 1925 481 
Q 2391 481 2648 825 
Q 2906 1169 2906 1791 
z
M 3481 434 
Q 3481 -459 3084 -895 
Q 2688 -1331 1869 -1331 
Q 1566 -1331 1297 -1286 
Q 1028 -1241 775 -1147 
L 775 -588 
Q 1028 -725 1275 -790 
Q 1522 -856 1778 -856 
Q 2344 -856 2625 -561 
Q 2906 -266 2906 331 
L 2906 616 
Q 2728 306 2450 153 
Q 2172 0 1784 0 
Q 1141 0 747 490 
Q 353 981 353 1791 
Q 353 2603 747 3093 
Q 1141 3584 1784 3584 
Q 2172 3584 2450 3431 
Q 2728 3278 2906 2969 
L 2906 3500 
L 3481 3500 
L 3481 434 
z
" transform="scale(0.015625)"/>
      <path id="DejaVuSans-4c" d="M 628 4666 
L 1259 4666 
L 1259 531 
L 3531 531 
L 3531 0 
L 628 0 
L 628 4666 
z
" transform="scale(0.015625)"/>
      <path id="DejaVuSans-49" d="M 628 4666 
L 1259 4666 
L 1259 0 
L 628 0 
L 628 4666 
z
" transform="scale(0.015625)"/>
      <path id="DejaVuSans-50" d="M 1259 4147 
L 1259 2394 
L 2053 2394 
Q 2494 2394 2734 2622 
Q 2975 2850 2975 3272 
Q 2975 3691 2734 3919 
Q 2494 4147 2053 4147 
L 1259 4147 
z
M 628 4666 
L 2053 4666 
Q 2838 4666 3239 4311 
Q 3641 3956 3641 3272 
Q 3641 2581 3239 2228 
Q 2838 1875 2053 1875 
L 1259 1875 
L 1259 0 
L 628 0 
L 628 4666 
z
" transform="scale(0.015625)"/>
      <path id="DejaVuSans-20" transform="scale(0.015625)"/>
      <path id="DejaVuSans-76" d="M 191 3500 
L 800 3500 
L 1894 563 
L 2988 3500 
L 3597 3500 
L 2284 0 
L 1503 0 
L 191 3500 
z
" transform="scale(0.015625)"/>
      <path id="DejaVuSans-73" d="M 2834 3397 
L 2834 2853 
Q 2591 2978 2328 3040 
Q 2066 3103 1784 3103 
Q 1356 3103 1142 2972 
Q 928 2841 928 2578 
Q 928 2378 1081 2264 
Q 1234 2150 1697 2047 
L 1894 2003 
Q 2506 1872 2764 1633 
Q 3022 1394 3022 966 
Q 3022 478 2636 193 
Q 2250 -91 1575 -91 
Q 1294 -91 989 -36 
Q 684 19 347 128 
L 347 722 
Q 666 556 975 473 
Q 1284 391 1588 391 
Q 1994 391 2212 530 
Q 2431 669 2431 922 
Q 2431 1156 2273 1281 
Q 2116 1406 1581 1522 
L 1381 1569 
Q 847 1681 609 1914 
Q 372 2147 372 2553 
Q 372 3047 722 3315 
Q 1072 3584 1716 3584 
Q 2034 3584 2315 3537 
Q 2597 3491 2834 3397 
z
" transform="scale(0.015625)"/>
      <path id="DejaVuSans-6f" d="M 1959 3097 
Q 1497 3097 1228 2736 
Q 959 2375 959 1747 
Q 959 1119 1226 758 
Q 1494 397 1959 397 
Q 2419 397 2687 759 
Q 2956 1122 2956 1747 
Q 2956 2369 2687 2733 
Q 2419 3097 1959 3097 
z
M 1959 3584 
Q 2709 3584 3137 3096 
Q 3566 2609 3566 1747 
Q 3566 888 3137 398 
Q 2709 -91 1959 -91 
Q 1206 -91 779 398 
Q 353 888 353 1747 
Q 353 2609 779 3096 
Q 1206 3584 1959 3584 
z
" transform="scale(0.015625)"/>
      <path id="DejaVuSans-6e" d="M 3513 2113 
L 3513 0 
L 2938 0 
L 2938 2094 
Q 2938 2591 2744 2837 
Q 2550 3084 2163 3084 
Q 1697 3084 1428 2787 
Q 1159 2491 1159 1978 
L 1159 0 
L 581 0 
L 581 3500 
L 1159 3500 
L 1159 2956 
Q 1366 3272 1645 3428 
Q 1925 3584 2291 3584 
Q 2894 3584 3203 3211 
Q 3513 2838 3513 2113 
z
" transform="scale(0.015625)"/>
      <path id="DejaVuSans-74" d="M 1172 4494 
L 1172 3500 
L 2356 3500 
L 2356 3053 
L 1172 3053 
L 1172 1153 
Q 1172 725 1289 603 
Q 1406 481 1766 481 
L 2356 481 
L 2356 0 
L 1766 0 
Q 1100 0 847 248 
Q 594 497 594 1153 
L 594 3053 
L 172 3053 
L 172 3500 
L 594 3500 
L 594 4494 
L 1172 4494 
z
" transform="scale(0.015625)"/>
      <path id="DejaVuSans-6b" d="M 581 4863 
L 1159 4863 
L 1159 1991 
L 2875 3500 
L 3609 3500 
L 1753 1863 
L 3688 0 
L 2938 0 
L 1159 1709 
L 1159 0 
L 581 0 
L 581 4863 
z
" transform="scale(0.015625)"/>
      <path id="DejaVuSans-65" d="M 3597 1894 
L 3597 1613 
L 953 1613 
Q 991 1019 1311 708 
Q 1631 397 2203 397 
Q 2534 397 2845 478 
Q 3156 559 3463 722 
L 3463 178 
Q 3153 47 2828 -22 
Q 2503 -91 2169 -91 
Q 1331 -91 842 396 
Q 353 884 353 1716 
Q 353 2575 817 3079 
Q 1281 3584 2069 3584 
Q 2775 3584 3186 3129 
Q 3597 2675 3597 1894 
z
M 3022 2063 
Q 3016 2534 2758 2815 
Q 2500 3097 2075 3097 
Q 1594 3097 1305 2825 
Q 1016 2553 972 2059 
L 3022 2063 
z
" transform="scale(0.015625)"/>
     </defs>
     <use xlink:href="#DejaVuSans-53"/>
     <use xlink:href="#DejaVuSans-69" x="63.476562"/>
     <use xlink:href="#DejaVuSans-67" x="91.259766"/>
     <use xlink:href="#DejaVuSans-4c" x="154.736328"/>
     <use xlink:href="#DejaVuSans-49" x="210.449219"/>
     <use xlink:href="#DejaVuSans-50" x="239.941406"/>
     <use xlink:href="#DejaVuSans-20" x="300.244141"/>
     <use xlink:href="#DejaVuSans-76" x="332.03125"/>
     <use xlink:href="#DejaVuSans-69" x="391.210938"/>
     <use xlink:href="#DejaVuSans-73" x="418.994141"/>
     <use xlink:href="#DejaVuSans-69" x="471.09375"/>
     <use xlink:href="#DejaVuSans-6f" x="498.876953"/>
     <use xlink:href="#DejaVuSans-6e" x="560.058594"/>
     <use xlink:href="#DejaVuSans-20" x="623.4375"/>
     <use xlink:href="#DejaVuSans-74" x="655.224609"/>
     <use xlink:href="#DejaVuSans-6f" x="694.433594"/>
     <use xlink:href="#DejaVuSans-6b" x="755.615234"/>
     <use xlink:href="#DejaVuSans-65" x="809.900391"/>
     <use xlink:href="#DejaVuSans-6e" x="871.423828"/>
     <use xlink:href="#DejaVuSans-73" x="934.802734"/>
    </g>
   </g>
   <g id="text_5">
    <!-- Instruction -->
    <g style="fill: #111827" transform="translate(44.782134 136.457781)scale(0.083 -0.083)">
     <defs>
      <path id="DejaVuSans-Bold-49" d="M 588 4666 
L 1791 4666 
L 1791 0 
L 588 0 
L 588 4666 
z
" transform="scale(0.015625)"/>
     </defs>
     <use xlink:href="#DejaVuSans-Bold-49"/>
     <use xlink:href="#DejaVuSans-Bold-6e" x="37.207031"/>
     <use xlink:href="#DejaVuSans-Bold-73" x="108.398438"/>
     <use xlink:href="#DejaVuSans-Bold-74" x="167.919922"/>
     <use xlink:href="#DejaVuSans-Bold-72" x="215.722656"/>
     <use xlink:href="#DejaVuSans-Bold-75" x="265.039062"/>
     <use xlink:href="#DejaVuSans-Bold-63" x="336.230469"/>
     <use xlink:href="#DejaVuSans-Bold-74" x="395.507812"/>
     <use xlink:href="#DejaVuSans-Bold-69" x="443.310547"/>
     <use xlink:href="#DejaVuSans-Bold-6f" x="477.587891"/>
     <use xlink:href="#DejaVuSans-Bold-6e" x="546.289062"/>
    </g>
   </g>
   <g id="text_6">
    <!-- ... -->
    <g style="fill: #374151" transform="translate(115.915075 164.1742)scale(0.08 -0.08)">
     <use xlink:href="#DejaVuSans-2e"/>
     <use xlink:href="#DejaVuSans-2e" x="31.787109"/>
     <use xlink:href="#DejaVuSans-2e" x="63.574219"/>
    </g>
   </g>
   <g id="text_7">
    <!-- prompt + state tokens -->
    <g style="fill: #374151" transform="translate(35.010833 171.8568)scale(0.07 -0.07)">
     <defs>
      <path id="DejaVuSans-70" d="M 1159 525 
L 1159 -1331 
L 581 -1331 
L 581 3500 
L 1159 3500 
L 1159 2969 
Q 1341 3281 1617 3432 
Q 1894 3584 2278 3584 
Q 2916 3584 3314 3078 
Q 3713 2572 3713 1747 
Q 3713 922 3314 415 
Q 2916 -91 2278 -91 
Q 1894 -91 1617 61 
Q 1341 213 1159 525 
z
M 3116 1747 
Q 3116 2381 2855 2742 
Q 2594 3103 2138 3103 
Q 1681 3103 1420 2742 
Q 1159 2381 1159 1747 
Q 1159 1113 1420 752 
Q 1681 391 2138 391 
Q 2594 391 2855 752 
Q 3116 1113 3116 1747 
z
" transform="scale(0.015625)"/>
      <path id="DejaVuSans-72" d="M 2631 2963 
Q 2534 3019 2420 3045 
Q 2306 3072 2169 3072 
Q 1681 3072 1420 2755 
Q 1159 2438 1159 1844 
L 1159 0 
L 581 0 
L 581 3500 
L 1159 3500 
L 1159 2956 
Q 1341 3275 1631 3429 
Q 1922 3584 2338 3584 
Q 2397 3584 2469 3576 
Q 2541 3569 2628 3553 
L 2631 2963 
z
" transform="scale(0.015625)"/>
      <path id="DejaVuSans-6d" d="M 3328 2828 
Q 3544 3216 3844 3400 
Q 4144 3584 4550 3584 
Q 5097 3584 5394 3201 
Q 5691 2819 5691 2113 
L 5691 0 
L 5113 0 
L 5113 2094 
Q 5113 2597 4934 2840 
Q 4756 3084 4391 3084 
Q 3944 3084 3684 2787 
Q 3425 2491 3425 1978 
L 3425 0 
L 2847 0 
L 2847 2094 
Q 2847 2600 2669 2842 
Q 2491 3084 2119 3084 
Q 1678 3084 1418 2786 
Q 1159 2488 1159 1978 
L 1159 0 
L 581 0 
L 581 3500 
L 1159 3500 
L 1159 2956 
Q 1356 3278 1631 3431 
Q 1906 3584 2284 3584 
Q 2666 3584 2933 3390 
Q 3200 3197 3328 2828 
z
" transform="scale(0.015625)"/>
      <path id="DejaVuSans-2b" d="M 2944 4013 
L 2944 2272 
L 4684 2272 
L 4684 1741 
L 2944 1741 
L 2944 0 
L 2419 0 
L 2419 1741 
L 678 1741 
L 678 2272 
L 2419 2272 
L 2419 4013 
L 2944 4013 
z
" transform="scale(0.015625)"/>
      <path id="DejaVuSans-61" d="M 2194 1759 
Q 1497 1759 1228 1600 
Q 959 1441 959 1056 
Q 959 750 1161 570 
Q 1363 391 1709 391 
Q 2188 391 2477 730 
Q 2766 1069 2766 1631 
L 2766 1759 
L 2194 1759 
z
M 3341 1997 
L 3341 0 
L 2766 0 
L 2766 531 
Q 2569 213 2275 61 
Q 1981 -91 1556 -91 
Q 1019 -91 701 211 
Q 384 513 384 1019 
Q 384 1609 779 1909 
Q 1175 2209 1959 2209 
L 2766 2209 
L 2766 2266 
Q 2766 2663 2505 2880 
Q 2244 3097 1772 3097 
Q 1472 3097 1187 3025 
Q 903 2953 641 2809 
L 641 3341 
Q 956 3463 1253 3523 
Q 1550 3584 1831 3584 
Q 2591 3584 2966 3190 
Q 3341 2797 3341 1997 
z
" transform="scale(0.015625)"/>
     </defs>
     <use xlink:href="#DejaVuSans-70"/>
     <use xlink:href="#DejaVuSans-72" x="63.476562"/>
     <use xlink:href="#DejaVuSans-6f" x="102.339844"/>
     <use xlink:href="#DejaVuSans-6d" x="163.521484"/>
     <use xlink:href="#DejaVuSans-70" x="260.933594"/>
     <use xlink:href="#DejaVuSans-74" x="324.410156"/>
     <use xlink:href="#DejaVuSans-20" x="363.619141"/>
     <use xlink:href="#DejaVuSans-2b" x="395.40625"/>
     <use xlink:href="#DejaVuSans-20" x="479.195312"/>
     <use xlink:href="#DejaVuSans-73" x="510.982422"/>
     <use xlink:href="#DejaVuSans-74" x="563.082031"/>
     <use xlink:href="#DejaVuSans-61" x="602.291016"/>
     <use xlink:href="#DejaVuSans-74" x="663.570312"/>
     <use xlink:href="#DejaVuSans-65" x="702.779297"/>
     <use xlink:href="#DejaVuSans-20" x="764.302734"/>
     <use xlink:href="#DejaVuSans-74" x="796.089844"/>
     <use xlink:href="#DejaVuSans-6f" x="835.298828"/>
     <use xlink:href="#DejaVuSans-6b" x="896.480469"/>
     <use xlink:href="#DejaVuSans-65" x="950.765625"/>
     <use xlink:href="#DejaVuSans-6e" x="1012.289062"/>
     <use xlink:href="#DejaVuSans-73" x="1075.667969"/>
    </g>
   </g>
   <g id="text_8">
    <!-- Force history -->
    <g style="fill: #111827" transform="translate(39.686712 208.596359)scale(0.083 -0.083)">
     <defs>
      <path id="DejaVuSans-Bold-68" d="M 4056 2131 
L 4056 0 
L 2931 0 
L 2931 347 
L 2931 1625 
Q 2931 2084 2911 2256 
Q 2891 2428 2841 2509 
Q 2775 2619 2662 2680 
Q 2550 2741 2406 2741 
Q 2056 2741 1856 2470 
Q 1656 2200 1656 1722 
L 1656 0 
L 538 0 
L 538 4863 
L 1656 4863 
L 1656 2988 
Q 1909 3294 2193 3439 
Q 2478 3584 2822 3584 
Q 3428 3584 3742 3212 
Q 4056 2841 4056 2131 
z
" transform="scale(0.015625)"/>
      <path id="DejaVuSans-Bold-79" d="M 78 3500 
L 1197 3500 
L 2138 1125 
L 2938 3500 
L 4056 3500 
L 2584 -331 
Q 2363 -916 2067 -1148 
Q 1772 -1381 1288 -1381 
L 641 -1381 
L 641 -647 
L 991 -647 
Q 1275 -647 1404 -556 
Q 1534 -466 1606 -231 
L 1638 -134 
L 78 3500 
z
" transform="scale(0.015625)"/>
     </defs>
     <use xlink:href="#DejaVuSans-Bold-46"/>
     <use xlink:href="#DejaVuSans-Bold-6f" x="64.310547"/>
     <use xlink:href="#DejaVuSans-Bold-72" x="133.011719"/>
     <use xlink:href="#DejaVuSans-Bold-63" x="182.328125"/>
     <use xlink:href="#DejaVuSans-Bold-65" x="241.605469"/>
     <use xlink:href="#DejaVuSans-Bold-20" x="309.427734"/>
     <use xlink:href="#DejaVuSans-Bold-68" x="344.242188"/>
     <use xlink:href="#DejaVuSans-Bold-69" x="415.433594"/>
     <use xlink:href="#DejaVuSans-Bold-73" x="449.710938"/>
     <use xlink:href="#DejaVuSans-Bold-74" x="509.232422"/>
     <use xlink:href="#DejaVuSans-Bold-6f" x="557.035156"/>
     <use xlink:href="#DejaVuSans-Bold-72" x="625.736328"/>
     <use xlink:href="#DejaVuSans-Bold-79" x="675.052734"/>
    </g>
   </g>
   <g id="text_9">
    <!-- $q, \dot{q}, \tau$ over $W$ frames -->
    <g style="fill: #374151" transform="translate(97.205969 240.6972)scale(0.075 -0.075)">
     <defs>
      <path id="DejaVuSans-Oblique-71" d="M 2669 525 
Q 2438 222 2123 65 
Q 1809 -91 1428 -91 
Q 897 -91 595 267 
Q 294 625 294 1253 
Q 294 1759 480 2231 
Q 666 2703 1013 3078 
Q 1238 3322 1530 3453 
Q 1822 3584 2144 3584 
Q 2531 3584 2781 3431 
Q 3031 3278 3144 2969 
L 3244 3494 
L 3822 3494 
L 2888 -1319 
L 2309 -1319 
L 2669 525 
z
M 891 1338 
Q 891 875 1084 633 
Q 1278 391 1644 391 
Q 2188 391 2572 911 
Q 2956 1431 2956 2175 
Q 2956 2625 2757 2864 
Q 2559 3103 2188 3103 
Q 1916 3103 1684 2976 
Q 1453 2850 1281 2606 
Q 1100 2350 995 2006 
Q 891 1663 891 1338 
z
" transform="scale(0.015625)"/>
      <path id="DejaVuSans-2c" d="M 750 794 
L 1409 794 
L 1409 256 
L 897 -744 
L 494 -744 
L 750 256 
L 750 794 
z
" transform="scale(0.015625)"/>
      <path id="DejaVuSans-307" d="M -1894 4863 
L -1319 4863 
L -1319 4134 
L -1894 4134 
L -1894 4863 
z
M -1600 3584 
L -1600 3584 
z
" transform="scale(0.015625)"/>
      <path id="DejaVuSans-Oblique-3c4" d="M 2103 638 
Q 2188 488 2525 488 
L 2800 488 
L 2706 0 
L 2363 0 
Q 1800 0 1600 300 
Q 1403 606 1534 1269 
L 1856 2925 
L 541 2925 
L 653 3500 
L 3881 3500 
L 3769 2925 
L 2444 2925 
L 2113 1234 
Q 2025 781 2103 638 
z
" transform="scale(0.015625)"/>
      <path id="DejaVuSans-Oblique-57" d="M 616 4666 
L 1228 4666 
L 1453 697 
L 3213 4666 
L 3916 4666 
L 4147 697 
L 5888 4666 
L 6528 4666 
L 4453 0 
L 3659 0 
L 3444 3891 
L 1697 0 
L 903 0 
L 616 4666 
z
" transform="scale(0.015625)"/>
      <path id="DejaVuSans-66" d="M 2375 4863 
L 2375 4384 
L 1825 4384 
Q 1516 4384 1395 4259 
Q 1275 4134 1275 3809 
L 1275 3500 
L 2222 3500 
L 2222 3053 
L 1275 3053 
L 1275 0 
L 697 0 
L 697 3053 
L 147 3053 
L 147 3500 
L 697 3500 
L 697 3744 
Q 697 4328 969 4595 
Q 1241 4863 1831 4863 
L 2375 4863 
z
" transform="scale(0.015625)"/>
     </defs>
     <use xlink:href="#DejaVuSans-Oblique-71" transform="translate(0 0.515625)"/>
     <use xlink:href="#DejaVuSans-2c" transform="translate(63.476562 0.515625)"/>
     <use xlink:href="#DejaVuSans-307" transform="translate(179.208984 13.015625)"/>
     <use xlink:href="#DejaVuSans-Oblique-71" transform="translate(114.746094 0.515625)"/>
     <use xlink:href="#DejaVuSans-2c" transform="translate(178.222656 0.515625)"/>
     <use xlink:href="#DejaVuSans-Oblique-3c4" transform="translate(229.492188 0.515625)"/>
     <use xlink:href="#DejaVuSans-20" transform="translate(289.697266 0.515625)"/>
     <use xlink:href="#DejaVuSans-6f" transform="translate(321.484375 0.515625)"/>
     <use xlink:href="#DejaVuSans-76" transform="translate(382.666016 0.515625)"/>
     <use xlink:href="#DejaVuSans-65" transform="translate(441.845703 0.515625)"/>
     <use xlink:href="#DejaVuSans-72" transform="translate(503.369141 0.515625)"/>
     <use xlink:href="#DejaVuSans-20" transform="translate(544.482422 0.515625)"/>
     <use xlink:href="#DejaVuSans-Oblique-57" transform="translate(576.269531 0.515625)"/>
     <use xlink:href="#DejaVuSans-20" transform="translate(675.146484 0.515625)"/>
     <use xlink:href="#DejaVuSans-66" transform="translate(706.933594 0.515625)"/>
     <use xlink:href="#DejaVuSans-72" transform="translate(742.138672 0.515625)"/>
     <use xlink:href="#DejaVuSans-61" transform="translate(783.251953 0.515625)"/>
     <use xlink:href="#DejaVuSans-6d" transform="translate(844.53125 0.515625)"/>
     <use xlink:href="#DejaVuSans-65" transform="translate(941.943359 0.515625)"/>
     <use xlink:href="#DejaVuSans-73" transform="translate(1003.466797 0.515625)"/>
    </g>
   </g>
   <g id="text_10">
    <!-- Force prior -->
    <g style="fill: #111827" transform="translate(196.786955 76.287687)scale(0.082 -0.082)">
     <defs>
      <path id="DejaVuSans-Bold-70" d="M 1656 506 
L 1656 -1331 
L 538 -1331 
L 538 3500 
L 1656 3500 
L 1656 2988 
Q 1888 3294 2169 3439 
Q 2450 3584 2816 3584 
Q 3463 3584 3878 3070 
Q 4294 2556 4294 1747 
Q 4294 938 3878 423 
Q 3463 -91 2816 -91 
Q 2450 -91 2169 54 
Q 1888 200 1656 506 
z
M 2400 2772 
Q 2041 2772 1848 2508 
Q 1656 2244 1656 1747 
Q 1656 1250 1848 986 
Q 2041 722 2400 722 
Q 2759 722 2948 984 
Q 3138 1247 3138 1747 
Q 3138 2247 2948 2509 
Q 2759 2772 2400 2772 
z
" transform="scale(0.015625)"/>
     </defs>
     <use xlink:href="#DejaVuSans-Bold-46"/>
     <use xlink:href="#DejaVuSans-Bold-6f" x="64.310547"/>
     <use xlink:href="#DejaVuSans-Bold-72" x="133.011719"/>
     <use xlink:href="#DejaVuSans-Bold-63" x="182.328125"/>
     <use xlink:href="#DejaVuSans-Bold-65" x="241.605469"/>
     <use xlink:href="#DejaVuSans-Bold-20" x="309.427734"/>
     <use xlink:href="#DejaVuSans-Bold-70" x="344.242188"/>
     <use xlink:href="#DejaVuSans-Bold-72" x="415.824219"/>
     <use xlink:href="#DejaVuSans-Bold-69" x="465.140625"/>
     <use xlink:href="#DejaVuSans-Bold-6f" x="499.417969"/>
     <use xlink:href="#DejaVuSans-Bold-72" x="568.119141"/>
    </g>
   </g>
   <g id="text_11">
    <!-- task-conditioned expected force -->
    <g style="fill: #374151" transform="translate(176.593256 84.717)scale(0.07 -0.07)">
     <defs>
      <path id="DejaVuSans-2d" d="M 313 2009 
L 1997 2009 
L 1997 1497 
L 313 1497 
L 313 2009 
z
" transform="scale(0.015625)"/>
      <path id="DejaVuSans-63" d="M 3122 3366 
L 3122 2828 
Q 2878 2963 2633 3030 
Q 2388 3097 2138 3097 
Q 1578 3097 1268 2742 
Q 959 2388 959 1747 
Q 959 1106 1268 751 
Q 1578 397 2138 397 
Q 2388 397 2633 464 
Q 2878 531 3122 666 
L 3122 134 
Q 2881 22 2623 -34 
Q 2366 -91 2075 -91 
Q 1284 -91 818 406 
Q 353 903 353 1747 
Q 353 2603 823 3093 
Q 1294 3584 2113 3584 
Q 2378 3584 2631 3529 
Q 2884 3475 3122 3366 
z
" transform="scale(0.015625)"/>
      <path id="DejaVuSans-64" d="M 2906 2969 
L 2906 4863 
L 3481 4863 
L 3481 0 
L 2906 0 
L 2906 525 
Q 2725 213 2448 61 
Q 2172 -91 1784 -91 
Q 1150 -91 751 415 
Q 353 922 353 1747 
Q 353 2572 751 3078 
Q 1150 3584 1784 3584 
Q 2172 3584 2448 3432 
Q 2725 3281 2906 2969 
z
M 947 1747 
Q 947 1113 1208 752 
Q 1469 391 1925 391 
Q 2381 391 2643 752 
Q 2906 1113 2906 1747 
Q 2906 2381 2643 2742 
Q 2381 3103 1925 3103 
Q 1469 3103 1208 2742 
Q 947 2381 947 1747 
z
" transform="scale(0.015625)"/>
      <path id="DejaVuSans-78" d="M 3513 3500 
L 2247 1797 
L 3578 0 
L 2900 0 
L 1881 1375 
L 863 0 
L 184 0 
L 1544 1831 
L 300 3500 
L 978 3500 
L 1906 2253 
L 2834 3500 
L 3513 3500 
z
" transform="scale(0.015625)"/>
     </defs>
     <use xlink:href="#DejaVuSans-74"/>
     <use xlink:href="#DejaVuSans-61" x="39.208984"/>
     <use xlink:href="#DejaVuSans-73" x="100.488281"/>
     <use xlink:href="#DejaVuSans-6b" x="152.587891"/>
     <use xlink:href="#DejaVuSans-2d" x="210.498047"/>
     <use xlink:href="#DejaVuSans-63" x="246.582031"/>
     <use xlink:href="#DejaVuSans-6f" x="301.5625"/>
     <use xlink:href="#DejaVuSans-6e" x="362.744141"/>
     <use xlink:href="#DejaVuSans-64" x="426.123047"/>
     <use xlink:href="#DejaVuSans-69" x="489.599609"/>
     <use xlink:href="#DejaVuSans-74" x="517.382812"/>
     <use xlink:href="#DejaVuSans-69" x="556.591797"/>
     <use xlink:href="#DejaVuSans-6f" x="584.375"/>
     <use xlink:href="#DejaVuSans-6e" x="645.556641"/>
     <use xlink:href="#DejaVuSans-65" x="708.935547"/>
     <use xlink:href="#DejaVuSans-64" x="770.458984"/>
     <use xlink:href="#DejaVuSans-20" x="833.935547"/>
     <use xlink:href="#DejaVuSans-65" x="865.722656"/>
     <use xlink:href="#DejaVuSans-78" x="925.496094"/>
     <use xlink:href="#DejaVuSans-70" x="984.675781"/>
     <use xlink:href="#DejaVuSans-65" x="1048.152344"/>
     <use xlink:href="#DejaVuSans-63" x="1109.675781"/>
     <use xlink:href="#DejaVuSans-74" x="1164.65625"/>
     <use xlink:href="#DejaVuSans-65" x="1203.865234"/>
     <use xlink:href="#DejaVuSans-64" x="1265.388672"/>
     <use xlink:href="#DejaVuSans-20" x="1328.865234"/>
     <use xlink:href="#DejaVuSans-66" x="1360.652344"/>
     <use xlink:href="#DejaVuSans-6f" x="1395.857422"/>
     <use xlink:href="#DejaVuSans-72" x="1457.039062"/>
     <use xlink:href="#DejaVuSans-63" x="1495.902344"/>
     <use xlink:href="#DejaVuSans-65" x="1550.882812"/>
    </g>
   </g>
   <g id="text_12">
    <!-- ... -->
    <g style="fill: #374151" transform="translate(267.104877 107.2393)scale(0.08 -0.08)">
     <use xlink:href="#DejaVuSans-2e"/>
     <use xlink:href="#DejaVuSans-2e" x="31.787109"/>
     <use xlink:href="#DejaVuSans-2e" x="63.574219"/>
    </g>
   </g>
   <g id="text_13">
    <!-- $\hat{\tau}_t$ per joint -->
    <g style="fill: #374151" transform="translate(183.166726 114.6546)scale(0.07 -0.07)">
     <defs>
      <path id="DejaVuSans-302" d="M -1831 5119 
L -1369 5119 
L -603 3944 
L -1038 3944 
L -1600 4709 
L -2163 3944 
L -2597 3944 
L -1831 5119 
z
M -1600 3584 
L -1600 3584 
z
" transform="scale(0.015625)"/>
      <path id="DejaVuSans-Oblique-74" d="M 2706 3500 
L 2619 3053 
L 1472 3053 
L 1100 1153 
Q 1081 1047 1072 975 
Q 1063 903 1063 863 
Q 1063 663 1183 572 
Q 1303 481 1569 481 
L 2150 481 
L 2053 0 
L 1503 0 
Q 991 0 739 200 
Q 488 400 488 806 
Q 488 878 497 964 
Q 506 1050 525 1153 
L 897 3053 
L 409 3053 
L 500 3500 
L 978 3500 
L 1172 4494 
L 1747 4494 
L 1556 3500 
L 2706 3500 
z
" transform="scale(0.015625)"/>
      <path id="DejaVuSans-6a" d="M 603 3500 
L 1178 3500 
L 1178 -63 
Q 1178 -731 923 -1031 
Q 669 -1331 103 -1331 
L -116 -1331 
L -116 -844 
L 38 -844 
Q 366 -844 484 -692 
Q 603 -541 603 -63 
L 603 3500 
z
M 603 4863 
L 1178 4863 
L 1178 4134 
L 603 4134 
L 603 4863 
z
" transform="scale(0.015625)"/>
     </defs>
     <use xlink:href="#DejaVuSans-302" transform="translate(62.629395 12.015625)"/>
     <use xlink:href="#DejaVuSans-Oblique-3c4" transform="translate(0 0.828125)"/>
     <use xlink:href="#DejaVuSans-Oblique-74" transform="translate(61.162109 -15.578125)scale(0.7)"/>
     <use xlink:href="#DejaVuSans-20" transform="translate(91.342773 0.828125)"/>
     <use xlink:href="#DejaVuSans-70" transform="translate(123.129883 0.828125)"/>
     <use xlink:href="#DejaVuSans-65" transform="translate(186.606445 0.828125)"/>
     <use xlink:href="#DejaVuSans-72" transform="translate(248.129883 0.828125)"/>
     <use xlink:href="#DejaVuSans-20" transform="translate(289.243164 0.828125)"/>
     <use xlink:href="#DejaVuSans-6a" transform="translate(321.030273 0.828125)"/>
     <use xlink:href="#DejaVuSans-6f" transform="translate(348.813477 0.828125)"/>
     <use xlink:href="#DejaVuSans-69" transform="translate(409.995117 0.828125)"/>
     <use xlink:href="#DejaVuSans-6e" transform="translate(437.77832 0.828125)"/>
     <use xlink:href="#DejaVuSans-74" transform="translate(501.157227 0.828125)"/>
    </g>
   </g>
   <g id="text_14">
    <!-- Force tokenizer -->
    <g style="fill: #111827" transform="translate(186.298002 176.525187)scale(0.082 -0.082)">
     <defs>
      <path id="DejaVuSans-Bold-6b" d="M 538 4863 
L 1656 4863 
L 1656 2216 
L 2944 3500 
L 4244 3500 
L 2534 1894 
L 4378 0 
L 3022 0 
L 1656 1459 
L 1656 0 
L 538 0 
L 538 4863 
z
" transform="scale(0.015625)"/>
      <path id="DejaVuSans-Bold-7a" d="M 366 3500 
L 3419 3500 
L 3419 2719 
L 1575 800 
L 3419 800 
L 3419 0 
L 288 0 
L 288 781 
L 2131 2700 
L 366 2700 
L 366 3500 
z
" transform="scale(0.015625)"/>
     </defs>
     <use xlink:href="#DejaVuSans-Bold-46"/>
     <use xlink:href="#DejaVuSans-Bold-6f" x="64.310547"/>
     <use xlink:href="#DejaVuSans-Bold-72" x="133.011719"/>
     <use xlink:href="#DejaVuSans-Bold-63" x="182.328125"/>
     <use xlink:href="#DejaVuSans-Bold-65" x="241.605469"/>
     <use xlink:href="#DejaVuSans-Bold-20" x="309.427734"/>
     <use xlink:href="#DejaVuSans-Bold-74" x="344.242188"/>
     <use xlink:href="#DejaVuSans-Bold-6f" x="392.044922"/>
     <use xlink:href="#DejaVuSans-Bold-6b" x="460.746094"/>
     <use xlink:href="#DejaVuSans-Bold-65" x="524.625"/>
     <use xlink:href="#DejaVuSans-Bold-6e" x="592.447266"/>
     <use xlink:href="#DejaVuSans-Bold-69" x="663.638672"/>
     <use xlink:href="#DejaVuSans-Bold-7a" x="697.916016"/>
     <use xlink:href="#DejaVuSans-Bold-65" x="756.119141"/>
     <use xlink:href="#DejaVuSans-Bold-72" x="823.941406"/>
    </g>
   </g>
   <g id="text_15">
    <!-- per-joint history tokens -->
    <g style="fill: #374151" transform="translate(175.581953 183.0834)scale(0.07 -0.07)">
     <defs>
      <path id="DejaVuSans-68" d="M 3513 2113 
L 3513 0 
L 2938 0 
L 2938 2094 
Q 2938 2591 2744 2837 
Q 2550 3084 2163 3084 
Q 1697 3084 1428 2787 
Q 1159 2491 1159 1978 
L 1159 0 
L 581 0 
L 581 4863 
L 1159 4863 
L 1159 2956 
Q 1366 3272 1645 3428 
Q 1925 3584 2291 3584 
Q 2894 3584 3203 3211 
Q 3513 2838 3513 2113 
z
" transform="scale(0.015625)"/>
      <path id="DejaVuSans-79" d="M 2059 -325 
Q 1816 -950 1584 -1140 
Q 1353 -1331 966 -1331 
L 506 -1331 
L 506 -850 
L 844 -850 
Q 1081 -850 1212 -737 
Q 1344 -625 1503 -206 
L 1606 56 
L 191 3500 
L 800 3500 
L 1894 763 
L 2988 3500 
L 3597 3500 
L 2059 -325 
z
" transform="scale(0.015625)"/>
     </defs>
     <use xlink:href="#DejaVuSans-70"/>
     <use xlink:href="#DejaVuSans-65" x="63.476562"/>
     <use xlink:href="#DejaVuSans-72" x="125"/>
     <use xlink:href="#DejaVuSans-2d" x="159.738281"/>
     <use xlink:href="#DejaVuSans-6a" x="195.822266"/>
     <use xlink:href="#DejaVuSans-6f" x="223.605469"/>
     <use xlink:href="#DejaVuSans-69" x="284.787109"/>
     <use xlink:href="#DejaVuSans-6e" x="312.570312"/>
     <use xlink:href="#DejaVuSans-74" x="375.949219"/>
     <use xlink:href="#DejaVuSans-20" x="415.158203"/>
     <use xlink:href="#DejaVuSans-68" x="446.945312"/>
     <use xlink:href="#DejaVuSans-69" x="510.324219"/>
     <use xlink:href="#DejaVuSans-73" x="538.107422"/>
     <use xlink:href="#DejaVuSans-74" x="590.207031"/>
     <use xlink:href="#DejaVuSans-6f" x="629.416016"/>
     <use xlink:href="#DejaVuSans-72" x="690.597656"/>
     <use xlink:href="#DejaVuSans-79" x="731.710938"/>
     <use xlink:href="#DejaVuSans-20" x="790.890625"/>
     <use xlink:href="#DejaVuSans-74" x="822.677734"/>
     <use xlink:href="#DejaVuSans-6f" x="861.886719"/>
     <use xlink:href="#DejaVuSans-6b" x="923.068359"/>
     <use xlink:href="#DejaVuSans-65" x="977.353516"/>
     <use xlink:href="#DejaVuSans-6e" x="1038.876953"/>
     <use xlink:href="#DejaVuSans-73" x="1102.255859"/>
    </g>
   </g>
   <g id="text_16">
    <!-- ... -->
    <g style="fill: #374151" transform="translate(276.712256 203.4673)scale(0.08 -0.08)">
     <use xlink:href="#DejaVuSans-2e"/>
     <use xlink:href="#DejaVuSans-2e" x="31.787109"/>
     <use xlink:href="#DejaVuSans-2e" x="63.574219"/>
    </g>
   </g>
   <g id="text_17">
    <!-- joint-level context tokens -->
    <g style="fill: #374151" transform="translate(183.166726 210.8826)scale(0.07 -0.07)">
     <defs>
      <path id="DejaVuSans-6c" d="M 603 4863 
L 1178 4863 
L 1178 0 
L 603 0 
L 603 4863 
z
" transform="scale(0.015625)"/>
     </defs>
     <use xlink:href="#DejaVuSans-6a"/>
     <use xlink:href="#DejaVuSans-6f" x="27.783203"/>
     <use xlink:href="#DejaVuSans-69" x="88.964844"/>
     <use xlink:href="#DejaVuSans-6e" x="116.748047"/>
     <use xlink:href="#DejaVuSans-74" x="180.126953"/>
     <use xlink:href="#DejaVuSans-2d" x="219.335938"/>
     <use xlink:href="#DejaVuSans-6c" x="255.419922"/>
     <use xlink:href="#DejaVuSans-65" x="283.203125"/>
     <use xlink:href="#DejaVuSans-76" x="344.726562"/>
     <use xlink:href="#DejaVuSans-65" x="403.90625"/>
     <use xlink:href="#DejaVuSans-6c" x="465.429688"/>
     <use xlink:href="#DejaVuSans-20" x="493.212891"/>
     <use xlink:href="#DejaVuSans-63" x="525"/>
     <use xlink:href="#DejaVuSans-6f" x="579.980469"/>
     <use xlink:href="#DejaVuSans-6e" x="641.162109"/>
     <use xlink:href="#DejaVuSans-74" x="704.541016"/>
     <use xlink:href="#DejaVuSans-65" x="743.75"/>
     <use xlink:href="#DejaVuSans-78" x="803.523438"/>
     <use xlink:href="#DejaVuSans-74" x="862.703125"/>
     <use xlink:href="#DejaVuSans-20" x="901.912109"/>
     <use xlink:href="#DejaVuSans-74" x="933.699219"/>
     <use xlink:href="#DejaVuSans-6f" x="972.908203"/>
     <use xlink:href="#DejaVuSans-6b" x="1034.089844"/>
     <use xlink:href="#DejaVuSans-65" x="1088.375"/>
     <use xlink:href="#DejaVuSans-6e" x="1149.898438"/>
     <use xlink:href="#DejaVuSans-73" x="1213.277344"/>
    </g>
   </g>
   <g id="text_18">
    <!-- Context tokens -->
    <g style="fill: #111827" transform="translate(310.507255 123.092781)scale(0.083 -0.083)">
     <use xlink:href="#DejaVuSans-Bold-43"/>
     <use xlink:href="#DejaVuSans-Bold-6f" x="73.388672"/>
     <use xlink:href="#DejaVuSans-Bold-6e" x="142.089844"/>
     <use xlink:href="#DejaVuSans-Bold-74" x="213.28125"/>
     <use xlink:href="#DejaVuSans-Bold-65" x="261.083984"/>
     <use xlink:href="#DejaVuSans-Bold-78" x="328.90625"/>
     <use xlink:href="#DejaVuSans-Bold-74" x="393.408203"/>
     <use xlink:href="#DejaVuSans-Bold-20" x="441.210938"/>
     <use xlink:href="#DejaVuSans-Bold-74" x="476.025391"/>
     <use xlink:href="#DejaVuSans-Bold-6f" x="523.828125"/>
     <use xlink:href="#DejaVuSans-Bold-6b" x="592.529297"/>
     <use xlink:href="#DejaVuSans-Bold-65" x="656.408203"/>
     <use xlink:href="#DejaVuSans-Bold-6e" x="724.230469"/>
     <use xlink:href="#DejaVuSans-Bold-73" x="795.421875"/>
    </g>
   </g>
   <g id="text_19">
    <!-- ... -->
    <g style="fill: #374151" transform="translate(384.921679 136.9096)scale(0.08 -0.08)">
     <use xlink:href="#DejaVuSans-2e"/>
     <use xlink:href="#DejaVuSans-2e" x="31.787109"/>
     <use xlink:href="#DejaVuSans-2e" x="63.574219"/>
    </g>
   </g>
   <g id="text_20">
    <!-- ... -->
    <g style="fill: #374151" transform="translate(384.921679 152.9476)scale(0.08 -0.08)">
     <use xlink:href="#DejaVuSans-2e"/>
     <use xlink:href="#DejaVuSans-2e" x="31.787109"/>
     <use xlink:href="#DejaVuSans-2e" x="63.574219"/>
    </g>
   </g>
   <g id="text_21">
    <!-- ... -->
    <g style="fill: #374151" transform="translate(396.046013 168.9856)scale(0.08 -0.08)">
     <use xlink:href="#DejaVuSans-2e"/>
     <use xlink:href="#DejaVuSans-2e" x="31.787109"/>
     <use xlink:href="#DejaVuSans-2e" x="63.574219"/>
    </g>
   </g>
   <g id="text_22">
    <!-- vision -->
    <g style="fill: #374151" transform="translate(368.740831 135.504)scale(0.065 -0.065)">
     <use xlink:href="#DejaVuSans-76"/>
     <use xlink:href="#DejaVuSans-69" x="59.179688"/>
     <use xlink:href="#DejaVuSans-73" x="86.962891"/>
     <use xlink:href="#DejaVuSans-69" x="139.0625"/>
     <use xlink:href="#DejaVuSans-6f" x="166.845703"/>
     <use xlink:href="#DejaVuSans-6e" x="228.027344"/>
    </g>
   </g>
   <g id="text_23">
    <!-- language -->
    <g style="fill: #374151" transform="translate(368.740831 151.542)scale(0.065 -0.065)">
     <defs>
      <path id="DejaVuSans-75" d="M 544 1381 
L 544 3500 
L 1119 3500 
L 1119 1403 
Q 1119 906 1312 657 
Q 1506 409 1894 409 
Q 2359 409 2629 706 
Q 2900 1003 2900 1516 
L 2900 3500 
L 3475 3500 
L 3475 0 
L 2900 0 
L 2900 538 
Q 2691 219 2414 64 
Q 2138 -91 1772 -91 
Q 1169 -91 856 284 
Q 544 659 544 1381 
z
M 1991 3584 
L 1991 3584 
z
" transform="scale(0.015625)"/>
     </defs>
     <use xlink:href="#DejaVuSans-6c"/>
     <use xlink:href="#DejaVuSans-61" x="27.783203"/>
     <use xlink:href="#DejaVuSans-6e" x="89.0625"/>
     <use xlink:href="#DejaVuSans-67" x="152.441406"/>
     <use xlink:href="#DejaVuSans-75" x="215.917969"/>
     <use xlink:href="#DejaVuSans-61" x="279.296875"/>
     <use xlink:href="#DejaVuSans-67" x="340.576172"/>
     <use xlink:href="#DejaVuSans-65" x="404.052734"/>
    </g>
   </g>
   <g id="text_24">
    <!-- force -->
    <g style="fill: #374151" transform="translate(368.740831 167.58)scale(0.065 -0.065)">
     <use xlink:href="#DejaVuSans-66"/>
     <use xlink:href="#DejaVuSans-6f" x="35.205078"/>
     <use xlink:href="#DejaVuSans-72" x="96.386719"/>
     <use xlink:href="#DejaVuSans-63" x="135.25"/>
     <use xlink:href="#DejaVuSans-65" x="190.230469"/>
    </g>
   </g>
   <g id="text_25">
    <!-- PaliGemma -->
    <g style="fill: #111827" transform="translate(426.872705 108.659094)scale(0.08 -0.08)">
     <defs>
      <path id="DejaVuSans-Bold-6d" d="M 3781 2919 
Q 3994 3244 4286 3414 
Q 4578 3584 4928 3584 
Q 5531 3584 5847 3212 
Q 6163 2841 6163 2131 
L 6163 0 
L 5038 0 
L 5038 1825 
Q 5041 1866 5042 1909 
Q 5044 1953 5044 2034 
Q 5044 2406 4934 2573 
Q 4825 2741 4581 2741 
Q 4263 2741 4089 2478 
Q 3916 2216 3909 1719 
L 3909 0 
L 2784 0 
L 2784 1825 
Q 2784 2406 2684 2573 
Q 2584 2741 2328 2741 
Q 2006 2741 1831 2477 
Q 1656 2213 1656 1722 
L 1656 0 
L 531 0 
L 531 3500 
L 1656 3500 
L 1656 2988 
Q 1863 3284 2130 3434 
Q 2397 3584 2719 3584 
Q 3081 3584 3359 3409 
Q 3638 3234 3781 2919 
z
" transform="scale(0.015625)"/>
     </defs>
     <use xlink:href="#DejaVuSans-Bold-50"/>
     <use xlink:href="#DejaVuSans-Bold-61" x="70.666016"/>
     <use xlink:href="#DejaVuSans-Bold-6c" x="138.146484"/>
     <use xlink:href="#DejaVuSans-Bold-69" x="172.423828"/>
     <use xlink:href="#DejaVuSans-Bold-47" x="206.701172"/>
     <use xlink:href="#DejaVuSans-Bold-65" x="288.78125"/>
     <use xlink:href="#DejaVuSans-Bold-6d" x="356.603516"/>
     <use xlink:href="#DejaVuSans-Bold-6d" x="460.802734"/>
     <use xlink:href="#DejaVuSans-Bold-61" x="565.001953"/>
    </g>
    <!-- VLA backbone -->
    <g style="fill: #111827" transform="translate(420.275205 117.313406)scale(0.08 -0.08)">
     <defs>
      <path id="DejaVuSans-Bold-62" d="M 2400 722 
Q 2759 722 2948 984 
Q 3138 1247 3138 1747 
Q 3138 2247 2948 2509 
Q 2759 2772 2400 2772 
Q 2041 2772 1848 2508 
Q 1656 2244 1656 1747 
Q 1656 1250 1848 986 
Q 2041 722 2400 722 
z
M 1656 2988 
Q 1888 3294 2169 3439 
Q 2450 3584 2816 3584 
Q 3463 3584 3878 3070 
Q 4294 2556 4294 1747 
Q 4294 938 3878 423 
Q 3463 -91 2816 -91 
Q 2450 -91 2169 54 
Q 1888 200 1656 506 
L 1656 0 
L 538 0 
L 538 4863 
L 1656 4863 
L 1656 2988 
z
" transform="scale(0.015625)"/>
     </defs>
     <use xlink:href="#DejaVuSans-Bold-56"/>
     <use xlink:href="#DejaVuSans-Bold-4c" x="77.392578"/>
     <use xlink:href="#DejaVuSans-Bold-41" x="141.113281"/>
     <use xlink:href="#DejaVuSans-Bold-20" x="218.505859"/>
     <use xlink:href="#DejaVuSans-Bold-62" x="253.320312"/>
     <use xlink:href="#DejaVuSans-Bold-61" x="324.902344"/>
     <use xlink:href="#DejaVuSans-Bold-63" x="392.382812"/>
     <use xlink:href="#DejaVuSans-Bold-6b" x="451.660156"/>
     <use xlink:href="#DejaVuSans-Bold-62" x="518.164062"/>
     <use xlink:href="#DejaVuSans-Bold-6f" x="589.746094"/>
     <use xlink:href="#DejaVuSans-Bold-6e" x="658.447266"/>
     <use xlink:href="#DejaVuSans-Bold-65" x="729.638672"/>
    </g>
   </g>
   <g id="text_26">
    <!-- prefix attention -->
    <g style="fill: #374151" transform="translate(424.868149 137.6424)scale(0.067 -0.067)">
     <use xlink:href="#DejaVuSans-70"/>
     <use xlink:href="#DejaVuSans-72" x="63.476562"/>
     <use xlink:href="#DejaVuSans-65" x="102.339844"/>
     <use xlink:href="#DejaVuSans-66" x="163.863281"/>
     <use xlink:href="#DejaVuSans-69" x="199.068359"/>
     <use xlink:href="#DejaVuSans-78" x="226.851562"/>
     <use xlink:href="#DejaVuSans-20" x="286.03125"/>
     <use xlink:href="#DejaVuSans-61" x="317.818359"/>
     <use xlink:href="#DejaVuSans-74" x="379.097656"/>
     <use xlink:href="#DejaVuSans-74" x="418.306641"/>
     <use xlink:href="#DejaVuSans-65" x="457.515625"/>
     <use xlink:href="#DejaVuSans-6e" x="519.039062"/>
     <use xlink:href="#DejaVuSans-74" x="582.417969"/>
     <use xlink:href="#DejaVuSans-69" x="621.626953"/>
     <use xlink:href="#DejaVuSans-6f" x="649.410156"/>
     <use xlink:href="#DejaVuSans-6e" x="710.591797"/>
    </g>
   </g>
   <g id="text_27">
    <!-- Action expert -->
    <g style="fill: #111827" transform="translate(420.919159 183.207687)scale(0.082 -0.082)">
     <use xlink:href="#DejaVuSans-Bold-41"/>
     <use xlink:href="#DejaVuSans-Bold-63" x="77.392578"/>
     <use xlink:href="#DejaVuSans-Bold-74" x="136.669922"/>
     <use xlink:href="#DejaVuSans-Bold-69" x="184.472656"/>
     <use xlink:href="#DejaVuSans-Bold-6f" x="218.75"/>
     <use xlink:href="#DejaVuSans-Bold-6e" x="287.451172"/>
     <use xlink:href="#DejaVuSans-Bold-20" x="358.642578"/>
     <use xlink:href="#DejaVuSans-Bold-65" x="393.457031"/>
     <use xlink:href="#DejaVuSans-Bold-78" x="461.279297"/>
     <use xlink:href="#DejaVuSans-Bold-70" x="525.78125"/>
     <use xlink:href="#DejaVuSans-Bold-65" x="597.363281"/>
     <use xlink:href="#DejaVuSans-Bold-72" x="665.185547"/>
     <use xlink:href="#DejaVuSans-Bold-74" x="714.501953"/>
    </g>
   </g>
   <g id="text_28">
    <!-- flow matching -->
    <g style="fill: #374151" transform="translate(420.317285 205.8039)scale(0.067 -0.067)">
     <defs>
      <path id="DejaVuSans-77" d="M 269 3500 
L 844 3500 
L 1563 769 
L 2278 3500 
L 2956 3500 
L 3675 769 
L 4391 3500 
L 4966 3500 
L 4050 0 
L 3372 0 
L 2619 2869 
L 1863 0 
L 1184 0 
L 269 3500 
z
" transform="scale(0.015625)"/>
     </defs>
     <use xlink:href="#DejaVuSans-66"/>
     <use xlink:href="#DejaVuSans-6c" x="35.205078"/>
     <use xlink:href="#DejaVuSans-6f" x="62.988281"/>
     <use xlink:href="#DejaVuSans-77" x="124.169922"/>
     <use xlink:href="#DejaVuSans-20" x="205.957031"/>
     <use xlink:href="#DejaVuSans-6d" x="237.744141"/>
     <use xlink:href="#DejaVuSans-61" x="335.15625"/>
     <use xlink:href="#DejaVuSans-74" x="396.435547"/>
     <use xlink:href="#DejaVuSans-63" x="435.644531"/>
     <use xlink:href="#DejaVuSans-68" x="490.625"/>
     <use xlink:href="#DejaVuSans-69" x="554.003906"/>
     <use xlink:href="#DejaVuSans-6e" x="581.787109"/>
     <use xlink:href="#DejaVuSans-67" x="645.166016"/>
    </g>
   </g>
   <g id="text_29">
    <!-- ... -->
    <g style="fill: #374151" transform="translate(494.142406 219.63895)scale(0.08 -0.08)">
     <use xlink:href="#DejaVuSans-2e"/>
     <use xlink:href="#DejaVuSans-2e" x="31.787109"/>
     <use xlink:href="#DejaVuSans-2e" x="63.574219"/>
    </g>
   </g>
   <g id="text_30">
    <!-- $T$-step dual-arm actions -->
    <g style="fill: #374151" transform="translate(419.305982 228.5244)scale(0.07 -0.07)">
     <defs>
      <path id="DejaVuSans-Oblique-54" d="M 378 4666 
L 4325 4666 
L 4225 4134 
L 2559 4134 
L 1759 0 
L 1125 0 
L 1925 4134 
L 275 4134 
L 378 4666 
z
" transform="scale(0.015625)"/>
     </defs>
     <use xlink:href="#DejaVuSans-Oblique-54" transform="translate(0 0.015625)"/>
     <use xlink:href="#DejaVuSans-2d" transform="translate(61.083984 0.015625)"/>
     <use xlink:href="#DejaVuSans-73" transform="translate(97.167969 0.015625)"/>
     <use xlink:href="#DejaVuSans-74" transform="translate(149.267578 0.015625)"/>
     <use xlink:href="#DejaVuSans-65" transform="translate(188.476562 0.015625)"/>
     <use xlink:href="#DejaVuSans-70" transform="translate(250 0.015625)"/>
     <use xlink:href="#DejaVuSans-20" transform="translate(313.476562 0.015625)"/>
     <use xlink:href="#DejaVuSans-64" transform="translate(345.263672 0.015625)"/>
     <use xlink:href="#DejaVuSans-75" transform="translate(408.740234 0.015625)"/>
     <use xlink:href="#DejaVuSans-61" transform="translate(472.119141 0.015625)"/>
     <use xlink:href="#DejaVuSans-6c" transform="translate(533.398438 0.015625)"/>
     <use xlink:href="#DejaVuSans-2d" transform="translate(561.181641 0.015625)"/>
     <use xlink:href="#DejaVuSans-61" transform="translate(597.265625 0.015625)"/>
     <use xlink:href="#DejaVuSans-72" transform="translate(658.544922 0.015625)"/>
     <use xlink:href="#DejaVuSans-6d" transform="translate(699.658203 0.015625)"/>
     <use xlink:href="#DejaVuSans-20" transform="translate(797.070312 0.015625)"/>
     <use xlink:href="#DejaVuSans-61" transform="translate(828.857422 0.015625)"/>
     <use xlink:href="#DejaVuSans-63" transform="translate(890.136719 0.015625)"/>
     <use xlink:href="#DejaVuSans-74" transform="translate(945.117188 0.015625)"/>
     <use xlink:href="#DejaVuSans-69" transform="translate(984.326172 0.015625)"/>
     <use xlink:href="#DejaVuSans-6f" transform="translate(1012.109375 0.015625)"/>
     <use xlink:href="#DejaVuSans-6e" transform="translate(1073.291016 0.015625)"/>
     <use xlink:href="#DejaVuSans-73" transform="translate(1136.669922 0.015625)"/>
    </g>
   </g>
   <g id="patch_63">
    <path d="M 117.817749 75.976156 
Q 206.931296 104.764161 294.714972 133.122552 
" style="fill: none; stroke: #3b82f6; stroke-width: 1.25; stroke-linecap: round"/>
    <path d="M 291.523471 129.989771 
L 294.714972 133.122552 
L 290.293846 133.796085 
L 291.523471 129.989771 
z
" style="fill: #3b82f6; stroke: #3b82f6; stroke-width: 1.25; stroke-linecap: round"/>
   </g>
   <g id="patch_64">
    <path d="M 117.912189 143.596314 
Q 206.932314 146.864249 294.555837 150.080914 
" style="fill: none; stroke: #22c55e; stroke-width: 1.25; stroke-linecap: round"/>
    <path d="M 290.6319 147.935519 
L 294.555837 150.080914 
L 290.485159 151.932826 
L 290.6319 147.935519 
z
" style="fill: #22c55e; stroke: #22c55e; stroke-width: 1.25; stroke-linecap: round"/>
   </g>
   <g id="patch_65">
    <path d="M 117.86571 208.563172 
Q 139.175136 203.665479 159.122532 199.080831 
" style="fill: none; stroke: #8b5cf6; stroke-width: 1.25; stroke-linecap: round"/>
    <path d="M 154.776179 198.027638 
L 159.122532 199.080831 
L 155.672166 201.925997 
L 154.776179 198.027638 
z
" style="fill: #8b5cf6; stroke: #8b5cf6; stroke-width: 1.25; stroke-linecap: round"/>
   </g>
   <g id="patch_66">
    <path d="M 221.09059 126.814792 
Q 221.09059 142.453766 221.09059 156.695196 
" style="fill: none; stroke: #f59e0b; stroke-width: 1.25; stroke-linecap: round"/>
    <path d="M 223.09059 152.695196 
L 221.09059 156.695196 
L 219.09059 152.695196 
L 223.09059 152.695196 
z
" style="fill: #f59e0b; stroke: #f59e0b; stroke-width: 1.25; stroke-linecap: round"/>
   </g>
   <g id="patch_67">
    <path d="M 281.459158 191.377923 
Q 290.366057 179.606901 298.429673 168.950329 
" style="fill: none; stroke: #8b5cf6; stroke-width: 1.25; stroke-linecap: round"/>
    <path d="M 294.421186 170.933264 
L 298.429673 168.950329 
L 297.610929 173.34688 
L 294.421186 170.933264 
z
" style="fill: #8b5cf6; stroke: #8b5cf6; stroke-width: 1.25; stroke-linecap: round"/>
   </g>
   <g id="patch_68">
    <path d="M 392.529661 147.160035 
Q 401.606523 132.165486 409.959663 118.366492 
" style="fill: none; stroke: #6b7280; stroke-width: 1.25; stroke-linecap: round"/>
    <path d="M 406.177311 120.752662 
L 409.959663 118.366492 
L 409.599188 122.824076 
L 406.177311 120.752662 
z
" style="fill: #6b7280; stroke: #6b7280; stroke-width: 1.25; stroke-linecap: round"/>
   </g>
   <g id="patch_69">
    <path d="M 452.17333 132.160629 
Q 452.17333 146.866752 452.17333 160.175333 
" style="fill: none; stroke: #6b7280; stroke-width: 1.25; stroke-linecap: round"/>
    <path d="M 454.17333 156.175333 
L 452.17333 160.175333 
L 450.17333 156.175333 
L 454.17333 156.175333 
z
" style="fill: #6b7280; stroke: #6b7280; stroke-width: 1.25; stroke-linecap: round"/>
   </g>
   <g id="patch_70">
    <path d="M 452.17333 200.318703 
Q 452.17333 205.669732 452.17333 209.623218 
" style="fill: none; stroke: #f59e0b; stroke-width: 1.25; stroke-linecap: round"/>
    <path d="M 454.17333 205.623218 
L 452.17333 209.623218 
L 450.17333 205.623218 
L 454.17333 205.623218 
z
" style="fill: #f59e0b; stroke: #f59e0b; stroke-width: 1.25; stroke-linecap: round"/>
   </g>
   <g id="text_31">
    <!-- vision token -->
    <g style="fill: #374151" transform="translate(57.2595 259.351956)scale(0.071 -0.071)">
     <use xlink:href="#DejaVuSans-76"/>
     <use xlink:href="#DejaVuSans-69" x="59.179688"/>
     <use xlink:href="#DejaVuSans-73" x="86.962891"/>
     <use xlink:href="#DejaVuSans-69" x="139.0625"/>
     <use xlink:href="#DejaVuSans-6f" x="166.845703"/>
     <use xlink:href="#DejaVuSans-6e" x="228.027344"/>
     <use xlink:href="#DejaVuSans-20" x="291.40625"/>
     <use xlink:href="#DejaVuSans-74" x="323.193359"/>
     <use xlink:href="#DejaVuSans-6f" x="362.402344"/>
     <use xlink:href="#DejaVuSans-6b" x="423.583984"/>
     <use xlink:href="#DejaVuSans-65" x="477.869141"/>
     <use xlink:href="#DejaVuSans-6e" x="539.392578"/>
    </g>
   </g>
   <g id="text_32">
    <!-- language token -->
    <g style="fill: #374151" transform="translate(143.220257 259.351956)scale(0.071 -0.071)">
     <use xlink:href="#DejaVuSans-6c"/>
     <use xlink:href="#DejaVuSans-61" x="27.783203"/>
     <use xlink:href="#DejaVuSans-6e" x="89.0625"/>
     <use xlink:href="#DejaVuSans-67" x="152.441406"/>
     <use xlink:href="#DejaVuSans-75" x="215.917969"/>
     <use xlink:href="#DejaVuSans-61" x="279.296875"/>
     <use xlink:href="#DejaVuSans-67" x="340.576172"/>
     <use xlink:href="#DejaVuSans-65" x="404.052734"/>
     <use xlink:href="#DejaVuSans-20" x="465.576172"/>
     <use xlink:href="#DejaVuSans-74" x="497.363281"/>
     <use xlink:href="#DejaVuSans-6f" x="536.572266"/>
     <use xlink:href="#DejaVuSans-6b" x="597.753906"/>
     <use xlink:href="#DejaVuSans-65" x="652.039062"/>
     <use xlink:href="#DejaVuSans-6e" x="713.5625"/>
    </g>
   </g>
   <g id="text_33">
    <!-- force/action token -->
    <g style="fill: #374151" transform="translate(229.181014 259.351956)scale(0.071 -0.071)">
     <defs>
      <path id="DejaVuSans-2f" d="M 1625 4666 
L 2156 4666 
L 531 -594 
L 0 -594 
L 1625 4666 
z
" transform="scale(0.015625)"/>
     </defs>
     <use xlink:href="#DejaVuSans-66"/>
     <use xlink:href="#DejaVuSans-6f" x="35.205078"/>
     <use xlink:href="#DejaVuSans-72" x="96.386719"/>
     <use xlink:href="#DejaVuSans-63" x="135.25"/>
     <use xlink:href="#DejaVuSans-65" x="190.230469"/>
     <use xlink:href="#DejaVuSans-2f" x="251.753906"/>
     <use xlink:href="#DejaVuSans-61" x="285.445312"/>
     <use xlink:href="#DejaVuSans-63" x="346.724609"/>
     <use xlink:href="#DejaVuSans-74" x="401.705078"/>
     <use xlink:href="#DejaVuSans-69" x="440.914062"/>
     <use xlink:href="#DejaVuSans-6f" x="468.697266"/>
     <use xlink:href="#DejaVuSans-6e" x="529.878906"/>
     <use xlink:href="#DejaVuSans-20" x="593.257812"/>
     <use xlink:href="#DejaVuSans-74" x="625.044922"/>
     <use xlink:href="#DejaVuSans-6f" x="664.253906"/>
     <use xlink:href="#DejaVuSans-6b" x="725.435547"/>
     <use xlink:href="#DejaVuSans-65" x="779.720703"/>
     <use xlink:href="#DejaVuSans-6e" x="841.244141"/>
    </g>
   </g>
   <g id="text_34">
    <!-- predicted force -->
    <g style="fill: #374151" transform="translate(315.141771 259.351956)scale(0.071 -0.071)">
     <use xlink:href="#DejaVuSans-70"/>
     <use xlink:href="#DejaVuSans-72" x="63.476562"/>
     <use xlink:href="#DejaVuSans-65" x="102.339844"/>
     <use xlink:href="#DejaVuSans-64" x="163.863281"/>
     <use xlink:href="#DejaVuSans-69" x="227.339844"/>
     <use xlink:href="#DejaVuSans-63" x="255.123047"/>
     <use xlink:href="#DejaVuSans-74" x="310.103516"/>
     <use xlink:href="#DejaVuSans-65" x="349.3125"/>
     <use xlink:href="#DejaVuSans-64" x="410.835938"/>
     <use xlink:href="#DejaVuSans-20" x="474.3125"/>
     <use xlink:href="#DejaVuSans-66" x="506.099609"/>
     <use xlink:href="#DejaVuSans-6f" x="541.304688"/>
     <use xlink:href="#DejaVuSans-72" x="602.486328"/>
     <use xlink:href="#DejaVuSans-63" x="641.349609"/>
     <use xlink:href="#DejaVuSans-65" x="696.330078"/>
    </g>
   </g>
   <g id="text_35">
    <!-- residual contact signal -->
    <g style="fill: #374151" transform="translate(401.102528 259.351956)scale(0.071 -0.071)">
     <use xlink:href="#DejaVuSans-72"/>
     <use xlink:href="#DejaVuSans-65" x="38.863281"/>
     <use xlink:href="#DejaVuSans-73" x="100.386719"/>
     <use xlink:href="#DejaVuSans-69" x="152.486328"/>
     <use xlink:href="#DejaVuSans-64" x="180.269531"/>
     <use xlink:href="#DejaVuSans-75" x="243.746094"/>
     <use xlink:href="#DejaVuSans-61" x="307.125"/>
     <use xlink:href="#DejaVuSans-6c" x="368.404297"/>
     <use xlink:href="#DejaVuSans-20" x="396.1875"/>
     <use xlink:href="#DejaVuSans-63" x="427.974609"/>
     <use xlink:href="#DejaVuSans-6f" x="482.955078"/>
     <use xlink:href="#DejaVuSans-6e" x="544.136719"/>
     <use xlink:href="#DejaVuSans-74" x="607.515625"/>
     <use xlink:href="#DejaVuSans-61" x="646.724609"/>
     <use xlink:href="#DejaVuSans-63" x="708.003906"/>
     <use xlink:href="#DejaVuSans-74" x="762.984375"/>
     <use xlink:href="#DejaVuSans-20" x="802.193359"/>
     <use xlink:href="#DejaVuSans-73" x="833.980469"/>
     <use xlink:href="#DejaVuSans-69" x="886.080078"/>
     <use xlink:href="#DejaVuSans-67" x="913.863281"/>
     <use xlink:href="#DejaVuSans-6e" x="977.339844"/>
     <use xlink:href="#DejaVuSans-61" x="1040.71875"/>
     <use xlink:href="#DejaVuSans-6c" x="1101.998047"/>
    </g>
   </g>
  </g>
 </g>
 <defs>
  <clipPath id="p55ae839555">
   <rect x="7.2" y="7.2" width="505.651512" height="267.3"/>
  </clipPath>
 </defs>
</svg>
